<?xml version="1.0" standalone="yes"?>
<svg xmlns="http://www.w3.org/2000/svg" width="208" height="230">
<path style="fill:#000000; stroke:none;" d="M0 0L0 5C2.13567 3.4511 3.45109 2.13567 5 0L0 0z"/>
<path style="fill:#4d4d4d; stroke:none;" d="M5 0L6 1L5 0z"/>
<path style="fill:#b6b6b6; stroke:none;" d="M6 0L7 1L6 0z"/>
<path style="fill:#e6e6e6; stroke:none;" d="M0 8C3.47303 5.70166 6.4667 3.31076 9 0C4.62028 1.49007 1.97004 3.81372 0 8z"/>
<path style="fill:#ffffff; stroke:none;" d="M0 54C9.7849 54 19.5979 54.0948 29 52L29 48L35 49C33.3448 51.9083 32.361 52.8642 29 53L29 69L32 69L32 75C25.4968 76.5282 17.2549 75.7981 12 80C12.4821 76.2138 13.8857 72.8694 14 69C9.39443 73.2104 9.36512 78.1244 9 84C7.00558 82.8552 4.48823 81.1055 4 84C1.96532 82.7741 1.67355 82.2974 1 80C-0.661102 83.9586 0 88.7397 0 93L0 118C5.82079 116.355 3.49675 112.397 6.02778 108.148C8.4163 104.138 13.2305 105.105 17 106C16.5176 103.636 16.364 103.482 14 103L14 99C15.5944 100.297 16.0183 100.535 18 101L17 97C22.1792 94.2847 22.5718 82.0802 30.8835 83.3133C32.6416 83.5741 34.5053 85.1299 36 86C36.8087 80.9767 39.6029 80.2884 43 84C43.683 82.494 43.8259 81.6852 44 80L48 80C48 71.6945 46.8824 65.1196 57 65L57 57L46 57L46 41L56 41C56.0355 37.0762 56.1007 33.1836 59.2284 30.3179C62.4209 27.3927 67.0017 28.0003 71 28C80.0544 27.9994 88.3861 27.7859 89 39L99.8302 40.2855L109 39C108.316 36.791 107.92 36.2966 106 35L106 33C108.379 33.0273 108.683 33.06 110 35C110.683 33.4939 110.826 32.6852 111 31C114.7 30.4127 117.365 29.8359 121 31C123.555 25.6817 127.848 22.5966 131.716 18.2847C136.848 12.564 137.299 7.10283 146 7C146.211 9.73856 146.303 10.422 149 11C147.685 13.3492 146.801 14.3644 145 12C136.789 16.0892 130.725 27.5603 124.001 33.9568C120.516 37.272 117.399 38.9819 117 44L127 44C126.115 47.8504 125.619 51.4258 129 54C127.966 58.0362 127.828 62.8211 128 67C126.373 64.5278 126.5 61.9268 126 59L122 60C122.084 62.5489 121.668 64.5304 121 67L125 67L125 69C121.127 68.1932 119.642 66.9406 119 63L110 62C109.737 58.5902 109.321 57.0989 106 56C105.826 58.6125 105.582 59.9433 104 62L105 66C101.96 66.7243 99.1217 66.9738 96 67L96 69L101 69C99.1441 70.0481 98.0559 70.5125 96 71L96 73L104 75C102.693 79.2057 100.231 80.1129 96 80L96 84C89.5737 83.9773 84.4263 81.0227 78 81L78 100C86.4794 100 99.0739 102.336 106.961 98.9907C113.598 96.1756 115.442 88.2256 119.785 83.1481C122.117 80.4222 125.74 80.2492 128.096 77.6829C131.088 74.4242 132.22 69.5106 135.61 66.6026C137.414 65.054 139.825 65.1723 141.791 63.9769C144.333 62.4313 145.648 59.5181 147 57C141.726 57.0041 137.147 58.3728 132 59C135.565 52.6581 141.527 47.1361 145.348 40.5756C146.493 38.6102 146.223 36.2567 147.293 34.3573C148.39 32.412 150.15 32.8385 152 33L152 35L149 36C149.598 37.1954 149.466 36.9774 151 38L149 39L149 41C154.368 40.8216 157.203 38.1983 158.968 33C160.438 28.6671 158.866 25.5725 164 24L164 28L182 28.0008C185.301 28.0182 189.002 27.8547 191.486 30.4336C196.361 35.4947 194.036 47.5623 194 54L198 54L197 59C200.808 58.8906 204.034 57.3215 207 60C209.599 53.8061 208 44.6859 208 38L208 17C207.998 13.1317 208.316 9.32661 205.682 6.17053C198.288 -2.6902 185.289 0 175 0L97 0C95.8251 5.62517 93.2972 10.1735 89 14C89.5466 8.93677 92.1524 4.68892 94 0L28 0C18.6137 0 7.71854 -1.91377 1.6034 7.08951C-0.97704 10.8887 0 16.639 0 21L0 54z"/>
<path style="fill:#f2fab9; stroke:none;" d="M94 0C93.0143 1.47852 93 1.20314 93 3C94.2892 1.55739 94.4009 1.76625 94 0z"/>
<path style="fill:#dfee85; stroke:none;" d="M95 0C94.0748 2.3398 93.7722 3.5303 94 6C95.4019 4.0585 96.2212 2.27013 97 0L95 0z"/>
<path style="fill:#e6e6e6; stroke:none;" d="M199 0C201.533 3.31078 204.527 5.70166 208 8C206.03 3.81371 203.38 1.49007 199 0z"/>
<path style="fill:#b6b6b6; stroke:none;" d="M201 0L202 1L201 0z"/>
<path style="fill:#4d4d4d; stroke:none;" d="M202 0L203 1L202 0z"/>
<path style="fill:#000000; stroke:none;" d="M203 0C204.549 2.13573 205.864 3.45107 208 5L208 0L203 0z"/>
<path style="fill:#5d5d5d; stroke:none;" d="M4 1L5 2L4 1M203 1L204 2L203 1z"/>
<path style="fill:#6a6a6a; stroke:none;" d="M3 2L4 3L3 2z"/>
<path style="fill:#f6fdc3; stroke:none;" d="M96 2C95.0143 3.47853 95 3.20319 95 5C96.2892 3.5574 96.4009 3.76627 96 2z"/>
<path style="fill:#6a6a6a; stroke:none;" d="M204 2L205 3L204 2z"/>
<path style="fill:#757575; stroke:none;" d="M2 3L3 4L2 3z"/>
<path style="fill:#f4fcb7; stroke:none;" d="M92.3333 3.66667C92.2779 3.72215 92.2222 4.77782 92.6667 4.33333C92.7222 4.27777 92.7778 3.22223 92.3333 3.66667z"/>
<path style="fill:#757575; stroke:none;" d="M205 3L206 4L205 3z"/>
<path style="fill:#7e7e7e; stroke:none;" d="M1 4L2 5L1 4M206 4L207 5L206 4z"/>
<path style="fill:#858585; stroke:none;" d="M0 5L1 6L0 5z"/>
<path style="fill:#d8eb6d; stroke:none;" d="M92 5C91.3562 7.10587 91.0941 8.79514 91 11C92.5733 9.05125 93.2909 7.41222 94 5L92 5z"/>
<path style="fill:#858585; stroke:none;" d="M207 5L208 6L207 5z"/>
<path style="fill:#effba7; stroke:none;" d="M94 6C93.0143 7.47855 93 7.20319 93 9C94.7662 8.02141 94.9555 7.7782 94 6z"/>
<path style="fill:#fbfecb; stroke:none;" d="M90.3333 7.66667C90.2778 7.72217 90.2222 8.7778 90.6667 8.33333C90.7223 8.27773 90.7777 7.22226 90.3333 7.66667z"/>
<path style="fill:#fbffc9; stroke:none;" d="M138 7C139.506 7.68303 140.315 7.8259 142 8C140.494 7.31697 139.685 7.1741 138 7z"/>
<path style="fill:#eaf6a3; stroke:none;" d="M142 7L144 10C145.118 7.86031 144.251 7.47325 142 7z"/>
<path style="fill:#fdffde; stroke:none;" d="M145 7C144.598 9.80565 144.598 12.1944 145 15C147.626 14.1613 148.161 13.6265 149 11C147.102 9.88268 146.265 8.81274 145 7z"/>
<path style="fill:#f3fdab; stroke:none;" d="M137 11C138.731 9.99405 140.053 9.45352 142 9C139.387 7.502 137.646 7.98758 137 11z"/>
<path style="fill:#d9ea7c; stroke:none;" d="M142 8L143 11C143.685 9.75159 143.749 9.45158 144 8L142 8z"/>
<path style="fill:#f4fea4; stroke:none;" d="M89 9C89.168 11.4025 89.1969 12.4602 91 14C90.4494 12.1749 89.9241 10.6482 89 9z"/>
<path style="fill:#e0ed92; stroke:none;" d="M90 9L90 13C91.0839 11.1375 91.0732 10.8825 90 9z"/>
<path style="fill:#f4fea8; stroke:none;" d="M92.3333 9.66667C92.2779 9.72215 92.2222 10.7778 92.6667 10.3333C92.7223 10.2777 92.7777 9.22227 92.3333 9.66667z"/>
<path style="fill:#dbf753; stroke:none;" d="M138 9C134.53 21.3173 119.656 27.2548 115 39C126.277 34.2251 138.33 20.2488 143 9L138 9z"/>
<path style="fill:#e8fb7b; stroke:none;" d="M137 11C136.014 12.4785 136 12.2032 136 14C137.289 12.5574 137.401 12.7663 137 11z"/>
<path style="fill:#f6febd; stroke:none;" d="M140 15C141.752 13.6698 142.67 12.7525 144 11C141.751 12.1536 141.154 12.7511 140 15z"/>
<path style="fill:#f3fdb1; stroke:none;" d="M134 13L134 15C135.635 14.455 135.455 14.6351 136 13L134 13z"/>
<path style="fill:#f8ffc2; stroke:none;" d="M139 15L134 22C137.141 20.4878 139.751 18.7177 139 15z"/>
<path style="fill:#e3f774; stroke:none;" d="M127 24C129.88 21.9602 131.96 19.8799 134 17C130.498 18.6493 128.649 20.4985 127 24z"/>
<path style="fill:#f8fed1; stroke:none;" d="M179 22L179 24L181 24L181 22L179 22z"/>
<path style="fill:#f4fca6; stroke:none;" d="M124 24C122.817 26.3281 121.777 28.5113 121 31C123.292 28.8885 124.657 26.815 126 24L124 24z"/>
<path style="fill:#f8fed1; stroke:none;" d="M132 24C127.051 28.9495 121.376 33.5725 117 39C122.36 37.1779 132.13 30.1284 132 24z"/>
<path style="fill:#f5f8ea; stroke:none;" d="M160 31C162.601 28.8469 163.493 27.344 164 24C159.552 24.7429 159.131 26.8217 160 31z"/>
<path style="fill:#b4b4b4; stroke:none;" d="M60 28C66.9279 30.9071 77.503 29 85 29C78.0721 26.0929 67.497 28 60 28M163 28C170.409 31.1089 181.975 29 190 29C182.591 25.8911 171.025 28 163 28z"/>
<path style="fill:#8e8e8e; stroke:none;" d="M59 29L60 30L59 29z"/>
<path style="fill:#5b5b5b; stroke:none;" d="M60 29L61 30L60 29z"/>
<path style="fill:#151515; stroke:none;" d="M61 29C67.4449 31.7044 77.0322 30 84 30C77.5551 27.2956 67.9678 29 61 29z"/>
<path style="fill:#494949; stroke:none;" d="M84 29L85 30L84 29z"/>
<path style="fill:#828282; stroke:none;" d="M85 29L86 30L85 29z"/>
<path style="fill:#fefefe; stroke:none;" d="M111 31L111 35C110.014 33.5215 110 33.7968 110 32L106 33L106 35C107.598 36.481 108.108 37.0614 109 39L89 39L89 42L79 42L79 55C82.1145 55.0003 86.9696 54.1796 89.3966 56.6034C91.2608 58.4651 90.784 61.3924 91.544 63.7145C93.7741 70.5285 96.6496 78.5343 89 83C91.3316 83.9845 93.4567 83.9813 96 84L96 80C100.431 80.3672 103.194 79.6819 104 75C101.305 74.1552 98.8061 73.3431 96 73L96 71C97.8782 70.8241 99.1995 70.5618 101 70C99.2309 69.2211 97.9641 69.0876 96 69L96 67C99.1691 66.992 101.959 66.8996 105 66L104 62C106.003 60.266 105.923 58.6451 106 56C108.85 57.5564 109.503 58.7929 110 62L119 63C119.343 67.2967 120.751 68.511 125 69L125 67L121 67C122.098 64.3063 122.495 62.8444 122 60L126 59C126.19 62.0241 125.678 64.9234 128 67C128.092 62.7704 128.333 58.1729 129 54C126.255 50.8288 126.338 48.0305 127 44L117 44C116.936 41.0066 117.054 39.6544 114 39C115.332 35.8692 116.842 32.6098 119 30C116.199 29.2196 113.803 30.2631 111 31z"/>
<path style="fill:#9d9e98; stroke:none;" d="M162 29L163 30L162 29z"/>
<path style="fill:#5d5d5a; stroke:none;" d="M163 29L164 30L163 29z"/>
<path style="fill:#151515; stroke:none;" d="M164 29C171.794 32.2703 182.551 29.4313 191 31C184.935 26.4049 171.45 29 164 29z"/>
<path style="fill:#707070; stroke:none;" d="M190 29L191 30L190 29z"/>
<path style="fill:#bfbfbf; stroke:none;" d="M191 29L192 30L191 29z"/>
<path style="fill:#6b6b6b; stroke:none;" d="M58 30L59 31L58 30z"/>
<path style="fill:#000000; stroke:none;" d="M58 42L47 42L47 55C56.9409 55.0011 58.9989 57.0591 59 67L50 67C50 72.2868 51.2125 78.1257 46 81L46 116C52.4316 116 58.399 115.122 59 123L44 123L44 145C49.0357 145 54.1468 145.435 59 144C57.7425 149.282 58 154.6 58 160L46 160L46 180C54.5525 180.279 54.5525 186.721 46 187L46 200L57 200C57.6025 201.985 57.9865 203.554 60.1481 204.387C62.6316 205.343 65.4695 204.409 68 204.17C73.1485 203.682 83.8126 206.377 87 202C84.107 201.998 79.8571 202.651 77.6034 200.397C74.5948 197.387 74.9674 187.429 79.1481 185.603C81.9859 184.364 85.9784 185 89 185L111 185L111 182L87 182C84.054 181.994 79.9187 182.516 78.0278 179.682C74.9519 175.073 77 164.398 77 159L88 159L88 146C84.5925 146 79.2892 146.955 76.3179 144.972C72.9338 142.714 72.9338 134.286 76.3179 132.028C78.6668 130.46 82.3296 131.001 85 131C92.3021 130.997 101.188 129.889 107.575 134.228C111.382 136.814 113.331 141.721 117.209 143.972C120.75 146.028 125.144 144.033 128.79 145.603C133.487 147.626 136.715 155.707 139 160L131 160C133.561 165.485 137.479 175.525 142.61 178.972C145.065 180.622 148.25 179.602 150.96 180.318C154.412 181.23 155.8 183.938 157 187L144 187C145.136 190.862 147.454 197.553 151.39 199.397C154.018 200.628 157.188 199.584 159.91 200.589C162.763 201.643 164.428 204.487 167.3 205.486C171.07 206.797 176.062 206 180 206C185.708 206 195.735 208.284 197 201L186 201C185.396 195.516 182.147 190.451 179 186C183.338 184.967 187.561 185 192 185C189.124 180.563 184.149 183.302 180.21 180.397C174.197 175.961 170.415 165.49 167 159L174 159C172.52 154.933 170.133 148.138 165.671 146.514C161.532 145.007 156.427 147.363 152.85 144.106C150.584 142.044 149.332 138.601 147.796 136C144.739 130.822 141.386 125.952 138 121L172 121C167.755 115.114 152.719 118.014 146 118C143.536 117.995 139.418 118.558 137.621 116.397C134.804 113.007 143.167 103.055 145 100C148.244 94.5928 150.859 86.6908 155.39 82.3171C157.706 80.082 161.13 80.0162 163.366 77.6829C166.206 74.7188 167.233 70.3709 169.954 67.3179C172.095 64.9168 175.007 65.6158 177.467 63.973C179.874 62.3655 180.49 59.6283 181 57C177.545 56.9905 174.368 56.802 171 56C173.558 51.8216 175.842 45.7996 179.61 42.6034C182.317 40.3068 185.781 41.7469 188.772 40.3966C192.344 38.7841 191.97 34.2718 192 31C185.039 29.7077 178.055 29.9968 171 30C168.201 30.0013 164.733 29.5434 162.213 31.0278C158.345 33.3064 157.776 38.7084 153.815 40.9722C151.187 42.474 148.038 41.357 145.39 42.6034C141.431 44.4676 139.515 51.0645 139 55L148 55C146.721 58.5134 144.897 63.8433 141.61 65.973C139.076 67.6141 136.127 66.9148 133.904 69.3179C131.341 72.0901 130.349 76.0469 127.61 78.6829C125.061 81.1367 121.522 81.1755 119.324 84.1481C115.356 89.5159 113.571 96.3713 106.999 99.3472C98.3027 103.285 85.3521 101 76 101C76 96.0269 73.8506 84.3562 77.6034 80.6034C80.5127 77.6941 88.183 78.7222 92 79C92 71.1618 89.027 64.6386 89 57C86.0756 56.9997 81.8794 57.6818 79.3179 55.9722C75.8458 53.6549 75.8471 44.3454 79.3179 42.0278C81.6627 40.462 85.327 41.0021 88 41C87.9979 38.327 88.538 34.6627 86.9722 32.3179C84.195 28.1589 74.3136 30 70 30C67.0196 30 61.1473 28.9272 59.0278 31.6034C57.0893 34.0509 58 39.0727 58 42z"/>
<path style="fill:#5d5d5d; stroke:none;" d="M86 30L87 31L86 30z"/>
<path style="fill:#f9fcdf; stroke:none;" d="M117 30L117 34C118.902 32.6659 118.966 32.3367 119 30L117 30z"/>
<path style="fill:#797a75; stroke:none;" d="M161 30L162 31L161 30z"/>
<path style="fill:#484848; stroke:none;" d="M191 30L192 31L191 30z"/>
<path style="fill:#cacaca; stroke:none;" d="M192 30L193 31L192 30z"/>
<path style="fill:#898989; stroke:none;" d="M57 31L58 32L57 31z"/>
<path style="fill:#757575; stroke:none;" d="M87 31L88 32L87 31z"/>
<path style="fill:#787874; stroke:none;" d="M160 31L161 32L160 31z"/>
<path style="fill:#7a7a7a; stroke:none;" d="M192 31L193 32L192 31z"/>
<path style="fill:#141414; stroke:none;" d="M57 32L57 42C58.3457 38.793 58.3457 35.207 57 32z"/>
<path style="fill:#fdffd6; stroke:none;" d="M147 39L151 39C150.339 37.6037 150.036 37.1863 149 36C150.797 36 150.521 35.9857 152 35L152 33C146.932 31.8458 146.295 34.4527 147 39z"/>
<path style="fill:#b1b1b1; stroke:none;" d="M159 32L160 33L159 32z"/>
<path style="fill:#2a2a2a; stroke:none;" d="M192 32L192 36C192.71 34.2405 192.71 33.7595 192 32z"/>
<path style="fill:#7d7d7d; stroke:none;" d="M56 33L56 42C57.2561 39.0059 57.2561 35.9941 56 33z"/>
<path style="fill:#b5b5b5; stroke:none;" d="M88 33L89 34L88 33z"/>
<path style="fill:#e1ed9a; stroke:none;" d="M148 33L148 35L150 35L150 33L148 33z"/>
<path style="fill:#59585a; stroke:none;" d="M159 33L160 34L159 33z"/>
<path style="fill:#fffffd; stroke:none;" d="M193 33C192.879 34.3297 192.892 35.7464 192.427 37.0255C189.889 44.016 184.317 39.7961 179.634 43.0278C176.097 45.4689 174.434 50.9975 174 55L183 55C181.85 58.6333 179.944 63.7757 176.61 65.9769C174.334 67.4802 171.652 67.2546 169.61 69.3179C164.492 74.4875 164.417 80.7246 156 81L156 84L161 84C157.797 87.275 153.344 87.0346 150.62 91.0586C148.797 93.7515 147.553 96.7878 145.891 99.5756C144.622 101.705 143.225 103.749 142.174 106.004C140.963 108.602 138.977 113.611 142.438 115.397C152.683 120.684 167.586 109.407 174 123L141 123C143.758 128.907 148.19 140.215 153.634 143.972C157.101 146.365 162.051 144.018 165.815 145.603C170.613 147.624 173.683 155.647 176 160L168 160C170.439 165.217 174.672 175.789 179.532 178.972C182.032 180.609 185.22 179.594 187.96 180.318C191.412 181.23 192.8 183.938 194 187L181 187C182.657 191.525 185.543 195.396 187 200L198 200C196.171 208.847 187.182 207 180 207C176.212 207 171.628 207.671 168 206.401C165.462 205.513 163.537 203.488 161 202.599C157.788 201.474 154.205 202.595 151.329 200.397C147.056 197.131 143.807 189.935 142 185L155 185C152.237 180.738 148.315 183.156 144.213 181.397C141.16 180.089 139.473 176.167 137 174C135.814 175.186 135.416 175.528 134 176C131.716 171.321 129.178 166.201 126 162L130 162L130 159C125.774 159 122.503 158.198 120 162L119 157C122.536 156.959 124.998 157.089 127 154L119 154C118.658 150.777 117.847 148.645 115 147C114.674 154.065 105.225 152 100 152C101.506 152.683 102.315 152.826 104 153L104 159L97 159C99.0339 162.042 100.854 161.431 104 160L106 166L100 167L100 174C99.3562 171.894 99.0941 170.205 99 168L95 168C94.3671 159.007 86.099 160 79 160L79 180L91 180C89.994 178.269 89.4535 176.947 89 175C91.8863 176.151 93.5203 177.258 95 180L113 180C112.828 182.253 112.796 184.581 110.682 185.974C108.101 187.675 103.929 187 101 187L78 187L78 200L89 200C89.0374 189.07 94.4083 189 104 189C101.759 193.398 102.472 196.691 107 199C110.533 192.593 121.595 194.997 128 195C130.4 195.001 133.561 194.541 135.798 195.603C140.004 197.602 136.49 202.446 134 204C137.697 206.549 141.919 208.15 146 210C146.911 207.383 147.344 205.727 147 203C149.01 205.123 150.413 207.533 152 210C154.394 208.661 156.262 208.179 159 208L158 212L162 212L162 216C159.19 216.184 157.479 216.663 155 218C156.118 219.631 157.966 221.201 158.667 223.083C159.405 225.069 158.592 227.785 160.5 229.278C161.913 230.384 164.342 229.996 166 230C170.086 230.009 177.961 231.846 179 227C188.124 230.873 195.125 231.399 202.981 224.42C205.056 222.576 206.977 220.777 207.682 217.996C208.923 213.106 208 207.023 208 202L208 170L208 67C205.618 67.9176 203.539 68.6756 201 69C203.446 67.3485 212.712 60.0822 204.941 57.8627C202.072 57.0429 197.291 58.4049 194 58C194.001 50.2571 196.044 40.2545 193 33z"/>
<path style="fill:#707070; stroke:none;" d="M88.3333 34.6667C88.2778 34.7222 88.2222 35.7778 88.6667 35.3333C88.7223 35.2777 88.7778 34.2223 88.3333 34.6667z"/>
<path style="fill:#989896; stroke:none;" d="M158 34L159 35L158 34z"/>
<path style="fill:#f5fdc4; stroke:none;" d="M115 35L114 39C115.274 37.6589 116.041 36.5969 117 35L115 35z"/>
<path style="fill:#4b4b4b; stroke:none;" d="M158 35L159 36L158 35z"/>
<path style="fill:#f6fbd1; stroke:none;" d="M26 39L31 37C28.3879 36.1267 27.4533 36.7238 26 39z"/>
<path style="fill:#4e4e4e; stroke:none;" d="M88 36L88 41C88.8299 38.9695 88.8299 38.0305 88 36z"/>
<path style="fill:#898988; stroke:none;" d="M157 36L158 37L157 36z"/>
<path style="fill:#6d6d6d; stroke:none;" d="M192 36L193 37L192 36z"/>
<path style="fill:#defc53; stroke:none;" d="M27 43C30.4269 41.9107 31.1369 40.5605 31 37C27.6787 38.0989 27.2626 39.5902 27 43z"/>
<path style="fill:#ecf8a3; stroke:none;" d="M31.3333 37.6667C31.2778 37.7222 31.2222 38.7778 31.6667 38.3333C31.7222 38.2778 31.7778 37.2222 31.3333 37.6667z"/>
<path style="fill:#f8ffc4; stroke:none;" d="M32 37L31 42C32.475 40.0648 32.791 39.3073 32 37z"/>
<path style="fill:#bdbdbc; stroke:none;" d="M156 37L157 38L156 37z"/>
<path style="fill:#424240; stroke:none;" d="M157 37L158 38L157 37z"/>
<path style="fill:#b4b4b4; stroke:none;" d="M192 37L193 38L192 37z"/>
<path style="fill:#e5edb6; stroke:none;" d="M148.667 38.3333C148.222 38.7778 149.278 38.7222 149.333 38.6667C149.778 38.2222 148.722 38.2778 148.667 38.3333z"/>
<path style="fill:#858683; stroke:none;" d="M156 38L157 39L156 38z"/>
<path style="fill:#434343; stroke:none;" d="M191 38L192 39L191 38z"/>
<path style="fill:#fbfee5; stroke:none;" d="M25 39C25.3776 43.9465 28.7754 47.4469 32 42C28.2212 43.1146 27.1269 42.1439 25 39z"/>
<path style="fill:#eaf994; stroke:none;" d="M26 39L26 43C26.7102 41.2405 26.7102 40.7595 26 39z"/>
<path style="fill:#deee83; stroke:none;" d="M146 39L146 41L149 41L149 39L146 39z"/>
<path style="fill:#b4b4b2; stroke:none;" d="M155 39L156 40L155 39z"/>
<path style="fill:#dcdcda; stroke:none;" d="M191.333 39.6667C191.278 39.7222 191.222 40.7778 191.667 40.3333C191.722 40.2778 191.778 39.2222 191.333 39.6667z"/>
<path style="fill:#61615f; stroke:none;" d="M155 40L156 41L155 40z"/>
<path style="fill:#7a7a78; stroke:none;" d="M190 40L191 41L190 40z"/>
<path style="fill:#bfbfbf; stroke:none;" d="M46 41C49.1633 42.3274 52.5856 41.9996 56 42C52.8367 40.6726 49.4144 41.0004 46 41z"/>
<path style="fill:#414141; stroke:none;" d="M78 41C81.1633 42.3274 84.5856 41.9996 88 42C84.8367 40.6726 81.4144 41.0004 78 41z"/>
<path style="fill:#797979; stroke:none;" d="M88 41L89 42L88 41z"/>
<path style="fill:#bec3a4; stroke:none;" d="M144.667 41.3333C144.222 41.7778 145.278 41.7222 145.333 41.6667C145.778 41.2222 144.722 41.2778 144.667 41.3333z"/>
<path style="fill:#a3ad6e; stroke:none;" d="M146 41C147.248 41.6848 147.549 41.7488 149 42C147.752 41.3152 147.452 41.2512 146 41z"/>
<path style="fill:#bcbcba; stroke:none;" d="M149 41C150.769 41.7789 152.036 41.9124 154 42C152.231 41.2211 150.964 41.0876 149 41z"/>
<path style="fill:#858583; stroke:none;" d="M154 41L155 42L154 41z"/>
<path style="fill:#3c3c3a; stroke:none;" d="M179 41C182.432 42.4403 186.3 42 190 42C186.568 40.5597 182.7 41 179 41z"/>
<path style="fill:#cbcbca; stroke:none;" d="M190 41L191 42L190 41z"/>
<path style="fill:#797979; stroke:none;" d="M46 42L46 56C47.6668 52.0279 47.6668 45.9721 46 42z"/>
<path style="fill:#1f1f1f; stroke:none;" d="M77 42L77 56C78.6668 52.0279 78.6668 45.9721 77 42z"/>
<path style="fill:#979797; stroke:none;" d="M78 42L78 56C79.6668 52.0279 79.6668 45.9721 78 42z"/>
<path style="fill:#a4a49f; stroke:none;" d="M143 42L144 43L143 42z"/>
<path style="fill:#e5f38f; stroke:none;" d="M27 43C28.2483 43.6848 28.5485 43.7488 30 44C28.7516 43.3152 28.4516 43.2512 27 43z"/>
<path style="fill:#5b5b57; stroke:none;" d="M143 43L144 44L143 43z"/>
<path style="fill:#6a6a6a; stroke:none;" d="M178 43L179 44L178 43z"/>
<path style="fill:#949592; stroke:none;" d="M142 44L143 45L142 44z"/>
<path style="fill:#51524e; stroke:none;" d="M142 45L143 46L142 45z"/>
<path style="fill:#949494; stroke:none;" d="M177 45L178 46L177 45z"/>
<path style="fill:#8a8b87; stroke:none;" d="M141 46L142 47L141 46z"/>
<path style="fill:#494949; stroke:none;" d="M176 46L177 47L176 46z"/>
<path style="fill:#dcdcdd; stroke:none;" d="M92 47C95.6987 48.552 100.017 48 104 48L124 48C120.301 46.448 115.983 47 112 47L92 47z"/>
<path style="fill:#c4c4c6; stroke:none;" d="M140 47L141 48L140 47z"/>
<path style="fill:#424341; stroke:none;" d="M141 47L142 48L141 47z"/>
<path style="fill:#aaaaaa; stroke:none;" d="M176 47L177 48L176 47z"/>
<path style="fill:#fffffd; stroke:none;" d="M29 48L29 52C19.4143 53.2603 9.87041 54 0 54L0 70C3.60448 70.6061 10.8105 75.4196 6.66667 79.6667C5.43545 80.9285 1.98512 80.5073 1.44444 82.2222C0.941029 83.819 3.21621 83.8352 4 84C4 80.5758 6.86231 82.9874 9 84C9.99351 78.0898 10.1829 73.9546 14 69L12 80C13.7833 79.0198 13.5943 79.0924 14 77C20.3752 77 25.9566 77.1585 32 75L32 69L29 69L29 53C32.6564 53.5499 33.745 52.4129 35 49L29 48z"/>
<path style="fill:#8e8e8d; stroke:none;" d="M92 48L92 51C92.6961 49.4463 92.6961 49.5537 92 48z"/>
<path style="fill:#474747; stroke:none;" d="M93 48C101.895 51.7323 115.125 45.0342 123 51C124.354 47.4073 119.55 48.0059 117 48L93 48z"/>
<path style="fill:#c4c4c4; stroke:none;" d="M124 48L124 51C124.696 49.4463 124.696 49.5537 124 48z"/>
<path style="fill:#818183; stroke:none;" d="M140 48L141 49L140 48z"/>
<path style="fill:#686868; stroke:none;" d="M175 48L176 49L175 48z"/>
<path style="fill:#010101; stroke:none;" d="M93 49C101.128 52.4105 114.186 50 123 50C114.872 46.5895 101.814 49 93 49z"/>
<path style="fill:#bbbbbb; stroke:none;" d="M139 49L140 50L139 49z"/>
<path style="fill:#363637; stroke:none;" d="M140 49L141 50L140 49z"/>
<path style="fill:#363636; stroke:none;" d="M93 50C101.128 53.4105 114.186 51 123 51C114.872 47.5895 101.814 50 93 50z"/>
<path style="fill:#777774; stroke:none;" d="M139 50L140 51L139 50z"/>
<path style="fill:#7e7e7e; stroke:none;" d="M174 50L175 51L174 50z"/>
<path style="fill:#e0e0e0; stroke:none;" d="M92 51C95.6987 52.552 100.017 52 104 52L124 52C120.301 50.448 115.983 51 112 51L92 51z"/>
<path style="fill:#b4b5af; stroke:none;" d="M138 51L139 52L138 51z"/>
<path style="fill:#424242; stroke:none;" d="M173 51L174 52L173 51z"/>
<path style="fill:#b3b2b7; stroke:none;" d="M137.333 52.6667C137.278 52.7222 137.222 53.7778 137.667 53.3333C137.722 53.2778 137.778 52.2222 137.333 52.6667z"/>
<path style="fill:#636365; stroke:none;" d="M138 52L139 53L138 52z"/>
<path style="fill:#969696; stroke:none;" d="M173 52L174 53L173 52z"/>
<path style="fill:#151418; stroke:none;" d="M138 53L137 56L148 56C144.692 54.608 141.254 54.8098 138 53z"/>
<path style="fill:#4c4c4c; stroke:none;" d="M172 53L173 54L172 53z"/>
<path style="fill:#c2c2c2; stroke:none;" d="M173 53L174 54L173 53z"/>
<path style="fill:#4d4c4f; stroke:none;" d="M137 54L138 55L137 54z"/>
<path style="fill:#9a9a9a; stroke:none;" d="M172 54L173 55L172 54z"/>
<path style="fill:#eaeaea; stroke:none;" d="M172 55C175.432 56.4403 179.3 56 183 56C179.616 54.5768 175.628 54.6012 172 55z"/>
<path style="fill:#fafce4; stroke:none;" d="M194 54L194 58C196.626 57.1613 197.161 56.6265 198 54L194 54z"/>
<path style="fill:#151515; stroke:none;" d="M47 55C50.4324 56.4403 54.2998 56 58 56C54.5676 54.5597 50.7002 55 47 55z"/>
<path style="fill:#ebebeb; stroke:none;" d="M79 55C82.4324 56.4403 86.2998 56 90 56C86.5676 54.5597 82.7002 55 79 55z"/>
<path style="fill:#e5ebbf; stroke:none;" d="M134.667 55.3333C134.222 55.7778 135.278 55.7222 135.333 55.6667C135.778 55.2222 134.722 55.2777 134.667 55.3333z"/>
<path style="fill:#e3f38c; stroke:none;" d="M134 58C135.752 57.4361 136.542 57.0811 138 56C135.663 56.0336 135.334 56.0977 134 58z"/>
<path style="fill:#525252; stroke:none;" d="M171 55L172 56L171 55z"/>
<path style="fill:#eaeec9; stroke:none;" d="M195 55L195 57L197 57L197 55L195 55z"/>
<path style="fill:#c9c9c9; stroke:none;" d="M46 56C49.6975 57.5515 54.0168 57 58 57C54.3025 55.4485 49.9832 56 46 56z"/>
<path style="fill:#131313; stroke:none;" d="M58 56L58 67C59.4309 63.59 59.4309 59.41 58 56z"/>
<path style="fill:#363636; stroke:none;" d="M78 56C81.6975 57.5515 86.0168 57 90 57C86.3025 55.4485 81.9832 56 78 56z"/>
<path style="fill:#efefec; stroke:none;" d="M90 56L90 65C91.2561 62.0059 91.2561 58.9941 90 56z"/>
<path style="fill:#e9f1b7; stroke:none;" d="M112 60C114.68 59.2562 115.719 58.4714 117 56C114.115 56.7109 112.839 57.115 112 60z"/>
<path style="fill:#fbffd7; stroke:none;" d="M132 56C132.765 59.569 134.941 59.1099 138 58L132 56z"/>
<path style="fill:#c7c7c7; stroke:none;" d="M138 56C140.89 57.2129 143.874 56.9983 147 57C144.11 55.7871 141.126 56.0017 138 56z"/>
<path style="fill:#434345; stroke:none;" d="M147.333 56.6667C147.278 56.7222 147.222 57.7778 147.667 57.3333C147.722 57.2777 147.778 56.2223 147.333 56.6667z"/>
<path style="fill:#343436; stroke:none;" d="M172 56C175.119 57.3123 178.218 56.8913 181 59C182.608 54.7357 174.667 56 172 56z"/>
<path style="fill:#989898; stroke:none;" d="M182.333 56.6667C182.278 56.7222 182.222 57.7778 182.667 57.3333C182.722 57.2777 182.778 56.2223 182.333 56.6667z"/>
<path style="fill:#e9e9e9; stroke:none;" d="M57 57L57 65C58.1614 62.2302 58.1614 59.7699 57 57z"/>
<path style="fill:#1d1e1a; stroke:none;" d="M89 57L89 66C90.2561 63.0059 90.2561 59.9941 89 57z"/>
<path style="fill:#7d7d7d; stroke:none;" d="M146 58L147 59L146 58z"/>
<path style="fill:#c7c7ca; stroke:none;" d="M145 59L146 60L145 59z"/>
<path style="fill:#b3b3b4; stroke:none;" d="M181 59L182 60L181 59z"/>
<path style="fill:#707075; stroke:none;" d="M145 60L146 61L145 60z"/>
<path style="fill:#717172; stroke:none;" d="M180 60L181 61L180 60z"/>
<path style="fill:#f1f5cd; stroke:none;" d="M196 60L196 63L199 63L199 60L196 60z"/>
<path style="fill:#aeaead; stroke:none;" d="M144 61L145 62L144 61z"/>
<path style="fill:#5b5c56; stroke:none;" d="M144 62L145 63L144 62z"/>
<path style="fill:#929389; stroke:none;" d="M179 62L180 63L179 62z"/>
<path style="fill:#989994; stroke:none;" d="M143 63L144 64L143 63z"/>
<path style="fill:#3d3d3d; stroke:none;" d="M178 63L179 64L178 63z"/>
<path style="fill:#cdcdc8; stroke:none;" d="M142 64L143 65L142 64z"/>
<path style="fill:#4c4c49; stroke:none;" d="M143 64L144 65L143 64z"/>
<path style="fill:#a6a6a6; stroke:none;" d="M178 64L179 65L178 64z"/>
<path style="fill:#d5d5d5; stroke:none;" d="M49 65C51.8897 66.2129 54.8741 65.9983 58 66C55.1103 64.7871 52.1259 65.0017 49 65z"/>
<path style="fill:#d6d6d5; stroke:none;" d="M90 65C91.2484 65.6848 91.5484 65.7488 93 66C91.7517 65.3152 91.4515 65.2512 90 65z"/>
<path style="fill:#dededf; stroke:none;" d="M135 65C137.332 65.9845 139.457 65.9813 142 66C139.668 65.0155 137.543 65.0187 135 65z"/>
<path style="fill:#747473; stroke:none;" d="M142 65L143 66L142 65z"/>
<path style="fill:#2f2f2f; stroke:none;" d="M170 65C172.332 65.9845 174.457 65.9813 177 66C174.668 65.0155 172.543 65.0187 170 65z"/>
<path style="fill:#696969; stroke:none;" d="M177 65L178 66L177 65z"/>
<path style="fill:#e6f19a; stroke:none;" d="M201 68C204.354 69.3055 206.383 68.0842 208 65C205.545 65.8248 203.312 66.8291 201 68z"/>
<path style="fill:#e8e8e8; stroke:none;" d="M48 66L48 80C49.6668 76.0279 49.6668 69.9721 48 66z"/>
<path style="fill:#7e7e7e; stroke:none;" d="M49 66L49 80C50.6668 76.0279 50.6668 69.9721 49 66z"/>
<path style="fill:#262626; stroke:none;" d="M50 66C52.6127 67.0977 55.1645 66.9928 58 67C55.3873 65.9023 52.8355 66.0072 50 66z"/>
<path style="fill:#313034; stroke:none;" d="M90 66C92.4595 70.4225 92 75.0688 92 80C93.7693 75.7835 93 70.5411 93 66L90 66z"/>
<path style="fill:#d3d3d4; stroke:none;" d="M93 66L93 80C94.6668 76.0279 94.6668 69.9721 93 66z"/>
<path style="fill:#58585b; stroke:none;" d="M135 66L136 67L135 66z"/>
<path style="fill:#282828; stroke:none;" d="M136 66C138.332 66.9845 140.457 66.9813 143 67C140.668 66.0155 138.543 66.0187 136 66z"/>
<path style="fill:#757575; stroke:none;" d="M170 66L171 67L170 66z"/>
<path style="fill:#d7d7d7; stroke:none;" d="M171 66C173.332 66.9845 175.457 66.9813 178 67C175.668 66.0155 173.543 66.0187 171 66z"/>
<path style="fill:#888694; stroke:none;" d="M134 67L135 68L134 67z"/>
<path style="fill:#474747; stroke:none;" d="M169 67L170 68L169 67z"/>
<path style="fill:#c4c4c4; stroke:none;" d="M170 67L171 68L170 67z"/>
<path style="fill:#979797; stroke:none;" d="M169 68L170 69L169 68z"/>
<path style="fill:#5f5f5f; stroke:none;" d="M133 69L134 70L133 69z"/>
<path style="fill:#535351; stroke:none;" d="M168 69L169 70L168 69z"/>
<path style="fill:#faffd3; stroke:none;" d="M0 72L4 71C1.95354 70.2489 1.40432 70.3444 0 72z"/>
<path style="fill:#bbbbbb; stroke:none;" d="M132 70L133 71L132 70z"/>
<path style="fill:#ababa9; stroke:none;" d="M168 70L169 71L168 70z"/>
<path style="fill:#eafb8f; stroke:none;" d="M1 71C2.2484 71.6848 2.54838 71.7488 4 72C2.75164 71.3152 2.45157 71.2512 1 71z"/>
<path style="fill:#494949; stroke:none;" d="M132 71L133 72L132 71z"/>
<path style="fill:#6d6d6c; stroke:none;" d="M167 71L168 72L167 71z"/>
<path style="fill:#daf952; stroke:none;" d="M0 72C0.255229 76.607 1.21725 78.6186 6 79C5.84427 74.3169 4.7828 72.5505 0 72z"/>
<path style="fill:#f5febb; stroke:none;" d="M4.66667 72.3333C4.22223 72.7778 5.27778 72.7222 5.33333 72.6667C5.7778 72.2222 4.72222 72.2778 4.66667 72.3333z"/>
<path style="fill:#9a9a9a; stroke:none;" d="M131 72L132 73L131 72z"/>
<path style="fill:#2c2c2c; stroke:none;" d="M166 72L167 73L166 72z"/>
<path style="fill:#c5c5c3; stroke:none;" d="M167 72L168 73L167 72z"/>
<path style="fill:#e2f67c; stroke:none;" d="M6 73L6 79C6.95111 76.7147 6.9511 75.2853 6 73z"/>
<path style="fill:#828280; stroke:none;" d="M166 73L167 74L166 73z"/>
<path style="fill:#f8faea; stroke:none;" d="M194 73L194 79C196.517 77.5459 197.388 75.8252 198 73L194 73z"/>
<path style="fill:#f7fed9; stroke:none;" d="M7 74C6.36407 77.9932 4.99324 79.3641 1 80C5.77101 81.9317 8.9317 78.771 7 74z"/>
<path style="fill:#7c7c7c; stroke:none;" d="M130 74L131 75L130 74z"/>
<path style="fill:#3c3c3a; stroke:none;" d="M165 74L166 75L165 74z"/>
<path style="fill:#bbbbbb; stroke:none;" d="M129 75L130 76L129 75z"/>
<path style="fill:#a3a3a1; stroke:none;" d="M165 75L166 76L165 75z"/>
<path style="fill:#666666; stroke:none;" d="M129 76L130 77L129 76z"/>
<path style="fill:#51514f; stroke:none;" d="M164 76L165 77L164 76z"/>
<path style="fill:#eefd9d; stroke:none;" d="M0 77C0.405671 79.0924 0.216672 79.0198 2 80C1.30867 78.6116 1.01543 78.1393 0 77z"/>
<path style="fill:#a5a5a5; stroke:none;" d="M128 77L129 78L128 77z"/>
<path style="fill:#c4c4c2; stroke:none;" d="M164 77L165 78L164 77z"/>
<path style="fill:#0c0c10; stroke:none;" d="M77 79C81.4715 80.8763 87.1833 80 92 80C87.893 77.6543 81.7016 79 77 79z"/>
<path style="fill:#555555; stroke:none;" d="M128 78L129 79L128 78z"/>
<path style="fill:#727272; stroke:none;" d="M163 78L164 79L163 78z"/>
<path style="fill:#e2f776; stroke:none;" d="M2 79C3.50604 79.683 4.3148 79.8259 6 80C4.49398 79.317 3.68519 79.1741 2 79z"/>
<path style="fill:#8c8c8c; stroke:none;" d="M127 79L128 80L127 79z"/>
<path style="fill:#393939; stroke:none;" d="M162 79L163 80L162 79z"/>
<path style="fill:#fffffd; stroke:none;" d="M36 86C30.0701 81.2504 25.8159 83.6187 21 89C22.6076 90.4498 23.0643 91.0515 24 93C21.1967 93.7709 19.359 95.3297 17 97L18 101C16.42 100.316 16.2228 100.195 15 99C14.0085 101.839 15.7409 103.439 17 106C13.928 105.092 9.22582 103.983 6.60339 106.603C4.67951 108.526 5.3079 111.448 4.48765 113.812C3.69041 116.109 1.76121 117.469 0 119C3.68766 120.748 10.9231 120.532 7 115C9.26332 112.211 10.4508 110.062 14 109L14 114C17.8776 113.397 25.5062 110.899 28 108C28.7224 110.418 28.9481 112.472 29 115L34 114L32 121C34.7568 121.029 36.5027 121.859 39 123L39 118L43 118C41.9519 119.856 41.4875 120.944 41 123C46.5702 120.64 52.0495 121 58 121C54.8833 116.678 48.8675 118 44 118C43.3496 107.66 45.7108 96.3222 43.7716 86.0154C42.5632 79.5927 36.5176 79.3611 36 86z"/>
<path style="fill:#efefed; stroke:none;" d="M44 80C44 92.6226 42.4582 105.822 44 118C45.4412 114.565 45 110.702 45 107C45 98.9926 47.105 87.3995 44 80z"/>
<path style="fill:#4e4e4e; stroke:none;" d="M45 80C46.506 80.683 47.3148 80.8259 49 81C47.494 80.317 46.6852 80.1741 45 80z"/>
<path style="fill:#232323; stroke:none;" d="M76 80L76 101C78.153 95.8692 78.153 85.1308 76 80z"/>
<path style="fill:#b1b1b3; stroke:none;" d="M77 80C80.6975 81.5515 85.0168 81 89 81C85.3025 79.4485 80.9832 80 77 80z"/>
<path style="fill:#a1a77e; stroke:none;" d="M89.6667 80.3333C89.2222 80.7778 90.2778 80.7222 90.3333 80.6667C90.7777 80.2222 89.7222 80.2778 89.6667 80.3333z"/>
<path style="fill:#b9bca6; stroke:none;" d="M91.6667 80.3333C91.2222 80.7778 92.2778 80.7222 92.3333 80.6667C92.7777 80.2223 91.7222 80.2777 91.6667 80.3333z"/>
<path style="fill:#494949; stroke:none;" d="M121 80C123.052 80.8742 124.747 80.9528 127 81C124.948 80.1258 123.253 80.0472 121 80z"/>
<path style="fill:#6f6f6f; stroke:none;" d="M156 80L157 81L156 80z"/>
<path style="fill:#b1b1b1; stroke:none;" d="M157 80C159.052 80.8743 160.747 80.9528 163 81C160.948 80.1257 159.253 80.0472 157 80z"/>
<path style="fill:#343432; stroke:none;" d="M45 81L45 117C46.4412 113.565 46 109.702 46 106C46 98.5202 47.9032 87.9187 45 81z"/>
<path style="fill:#d5d5d5; stroke:none;" d="M77 81L77 100C79.0196 95.1871 79.0196 85.8129 77 81z"/>
<path style="fill:#f5fbcf; stroke:none;" d="M86 81L87 84L93 82C90.6684 81.0155 88.5434 81.0187 86 81z"/>
<path style="fill:#868686; stroke:none;" d="M120 81L121 82L120 81z"/>
<path style="fill:#4a4a4a; stroke:none;" d="M155 81L156 82L155 81z"/>
<path style="fill:#2d2d2d; stroke:none;" d="M154 82L155 83L154 82z"/>
<path style="fill:#9e9e9e; stroke:none;" d="M155 82L156 83L155 82z"/>
<path style="fill:#f1f9c1; stroke:none;" d="M37 83L37 86L40 86L40 83L37 83z"/>
<path style="fill:#626262; stroke:none;" d="M119 83L120 84L119 83z"/>
<path style="fill:#5e5e5e; stroke:none;" d="M154 83L155 84L154 83z"/>
<path style="fill:#f2f7d0; stroke:none;" d="M155 83L154 87L160 87L155 83z"/>
<path style="fill:#bebebe; stroke:none;" d="M118 84L119 85L118 84z"/>
<path style="fill:#2d2d2d; stroke:none;" d="M153 84L154 85L153 84z"/>
<path style="fill:#b5b6b0; stroke:none;" d="M154 84L155 85L154 84z"/>
<path style="fill:#f6feb7; stroke:none;" d="M157 84L157 86L161 86L161 84L157 84z"/>
<path style="fill:#4c4c4c; stroke:none;" d="M118 85L119 86L118 85z"/>
<path style="fill:#6c6c66; stroke:none;" d="M153 85L154 86L153 85z"/>
<path style="fill:#f6f9e1; stroke:none;" d="M198 85L198 88L201 88L201 85L198 85z"/>
<path style="fill:#a1a1a1; stroke:none;" d="M117 86L118 87L117 86z"/>
<path style="fill:#33342f; stroke:none;" d="M152 86L153 87L152 86z"/>
<path style="fill:#c5c6b8; stroke:none;" d="M153 86L154 87L153 86z"/>
<path style="fill:#3d3d3d; stroke:none;" d="M117 87L118 88L117 87z"/>
<path style="fill:#83847d; stroke:none;" d="M152 87L153 88L152 87z"/>
<path style="fill:#878787; stroke:none;" d="M116 88L117 89L116 88z"/>
<path style="fill:#3b3c3a; stroke:none;" d="M151 88L152 89L151 88z"/>
<path style="fill:#f1f9c3; stroke:none;" d="M21 89C21.2107 91.7386 21.3025 92.422 24 93L23 89L21 89z"/>
<path style="fill:#eaf0c2; stroke:none;" d="M31 92C33.1236 91.1007 33.1007 91.1236 34 89C31.636 89.4825 31.4825 89.636 31 92z"/>
<path style="fill:#cbcbcb; stroke:none;" d="M115 89L116 90L115 89z"/>
<path style="fill:#9b9b99; stroke:none;" d="M151 89L152 90L151 89z"/>
<path style="fill:#f9feda; stroke:none;" d="M169 93C165.467 82.9513 154.392 96.3089 164.96 94.1188C166.3 93.8412 167.678 93.3487 169 93z"/>
<path style="fill:#727272; stroke:none;" d="M115 90L116 91L115 90z"/>
<path style="fill:#535254; stroke:none;" d="M150 90L151 91L150 90z"/>
<path style="fill:#eff6a8; stroke:none;" d="M162 90C163.506 90.683 164.315 90.8259 166 91C164.494 90.317 163.685 90.1741 162 90z"/>
<path style="fill:#bababa; stroke:none;" d="M114 91L115 92L114 91z"/>
<path style="fill:#b7b6bc; stroke:none;" d="M150 91L151 92L150 91z"/>
<path style="fill:#dcf06c; stroke:none;" d="M161 92C162.769 92.7789 164.036 92.9124 166 93L166 91C164.122 91.1759 162.801 91.4382 161 92z"/>
<path style="fill:#f8fdd1; stroke:none;" d="M179 93L182 92C181.326 94.2974 181.035 94.7741 179 96C180.506 96.683 181.315 96.8259 183 97L183 91C180.877 91.3067 180.314 91.3821 179 93z"/>
<path style="fill:#fbfedd; stroke:none;" d="M199 91C199.839 93.6264 200.374 94.1613 203 95C201.919 92.8792 201.121 92.0813 199 91z"/>
<path style="fill:#f2fabc; stroke:none;" d="M201 91C202.139 92.0154 202.612 92.3087 204 93C203.02 91.2167 203.092 91.4057 201 91z"/>
<path style="fill:#626262; stroke:none;" d="M114 92L115 93L114 92z"/>
<path style="fill:#696870; stroke:none;" d="M149 92L150 93L149 92z"/>
<path style="fill:#e2f286; stroke:none;" d="M180 92L179 96C181.697 95.422 181.789 94.7386 182 92L180 92z"/>
<path style="fill:#e4f192; stroke:none;" d="M201.667 92.3333C201.222 92.7778 202.278 92.7222 202.333 92.6667C202.778 92.2222 201.722 92.2777 201.667 92.3333z"/>
<path style="fill:#888888; stroke:none;" d="M113 93L114 94L113 93z"/>
<path style="fill:#b1b1b1; stroke:none;" d="M112 94L113 95L112 94z"/>
<path style="fill:#3c3c3c; stroke:none;" d="M113 94L114 95L113 94z"/>
<path style="fill:#8b8b8b; stroke:none;" d="M148 94L149 95L148 94z"/>
<path style="fill:#c7c7c7; stroke:none;" d="M111 95L112 96L111 95z"/>
<path style="fill:#4e4e4e; stroke:none;" d="M112 95L113 96L112 95z"/>
<path style="fill:#3d3d3d; stroke:none;" d="M147 95L148 96L147 95z"/>
<path style="fill:#707070; stroke:none;" d="M111 96L112 97L111 96z"/>
<path style="fill:#a5a5a5; stroke:none;" d="M147 96L148 97L147 96z"/>
<path style="fill:#717171; stroke:none;" d="M110 97L111 98L110 97z"/>
<path style="fill:#575757; stroke:none;" d="M146 97L147 98L146 97z"/>
<path style="fill:#cacaca; stroke:none;" d="M108 98L109 99L108 98z"/>
<path style="fill:#4d4d4d; stroke:none;" d="M109 98L110 99L109 98z"/>
<path style="fill:#dfdfdf; stroke:none;" d="M146.333 98.6667C146.278 98.7222 146.222 99.7778 146.667 99.3333C146.722 99.2778 146.778 98.2222 146.333 98.6667z"/>
<path style="fill:#b4b4b4; stroke:none;" d="M106 99L107 100L106 99z"/>
<path style="fill:#616161; stroke:none;" d="M107 99L108 100L107 99z"/>
<path style="fill:#727272; stroke:none;" d="M145 99L146 100L145 99z"/>
<path style="fill:#c6c6c6; stroke:none;" d="M77 100C83.4449 102.704 93.0322 101 100 101C93.5551 98.2956 83.9678 100 77 100z"/>
<path style="fill:#9a9a9a; stroke:none;" d="M100.667 100.333C100.222 100.778 101.278 100.722 101.333 100.667C101.778 100.222 100.722 100.278 100.667 100.333z"/>
<path style="fill:#777777; stroke:none;" d="M102.667 100.333C102.222 100.778 103.278 100.722 103.333 100.667C103.778 100.222 102.722 100.278 102.667 100.333z"/>
<path style="fill:#363636; stroke:none;" d="M144 100L145 101L144 100z"/>
<path style="fill:#8a8a8a; stroke:none;" d="M144 101L145 102L144 101z"/>
<path style="fill:#545454; stroke:none;" d="M143 102L144 103L143 102z"/>
<path style="fill:#a3a3a3; stroke:none;" d="M143 103L144 104L143 103z"/>
<path style="fill:#6b6b6b; stroke:none;" d="M142 104L143 105L142 104z"/>
<path style="fill:#393939; stroke:none;" d="M141 105L142 106L141 105z"/>
<path style="fill:#b8b8b8; stroke:none;" d="M142 105L143 106L142 105z"/>
<path style="fill:#858585; stroke:none;" d="M141 106L142 107L141 106z"/>
<path style="fill:#535353; stroke:none;" d="M140 107L141 108L140 107z"/>
<path style="fill:#fefefb; stroke:none;" d="M28 108C24.5747 110.636 18.241 112.844 14 114L14 109C10.0348 109.656 8.99837 111.714 7 115C7.79167 117.19 7.94682 117.012 7 119L7 121C8.19517 122.223 8.31643 122.42 9 124L0 119L0 129L4 129L4 132L0 132L0 134L4 134C-2.54585 143.775 11.6957 141.956 17 141L20 148C22.2523 147.763 31.2316 145.338 25 144C26.1953 141.834 26.691 140.447 27 138L29 138L29 143C29.6848 141.752 29.7488 141.452 30 140C32.5997 140.616 35.3459 141.427 36.9977 143.76C39.2639 146.961 35.9213 148.764 33.0293 148.477C31.6645 148.342 30.2244 147.515 29 147L27 157C27.6848 155.752 27.7488 155.452 28 154C29.0226 155.534 28.8046 155.402 30 156C32.3201 153.797 33.8101 153.232 37 153L37 159C40.4917 157.943 41.432 156.582 42 153C46.8291 156.875 44 168.016 44 174C45.4919 170.445 44.4517 166.742 45.3025 163.039C46.6694 157.091 50.1698 152.429 51 146L42 146C42 137.257 40.1481 126.271 43 118L39 118L39 123C36.4002 121.258 35.0957 120.503 32 121L34 114L29 115C28.9813 112.457 28.9845 110.332 28 108z"/>
<path style="fill:#9b9b9b; stroke:none;" d="M140 108L141 109L140 108z"/>
<path style="fill:#707070; stroke:none;" d="M139 109L140 110L139 109z"/>
<path style="fill:#f5f5f3; stroke:none;" d="M140 109C138.402 111.303 137.073 113.419 136 116L141 116C140.726 113.623 140.687 111.267 140 109z"/>
<path style="fill:#3b3b3b; stroke:none;" d="M138 110L139 111L138 110z"/>
<path style="fill:#9e9e9e; stroke:none;" d="M138 111L139 112L138 111z"/>
<path style="fill:#f4f8d6; stroke:none;" d="M24 112C25.3766 112.911 26.4399 113.404 28 114C26.686 112.382 26.1228 112.307 24 112z"/>
<path style="fill:#7b7b7b; stroke:none;" d="M137 112L138 113L137 112z"/>
<path style="fill:#dfeb93; stroke:none;" d="M23 113C24.506 113.683 25.3148 113.826 27 114C25.494 113.317 24.6852 113.174 23 113z"/>
<path style="fill:#4d4d4d; stroke:none;" d="M136 113L137 114L136 113z"/>
<path style="fill:#eff8af; stroke:none;" d="M22 114L22 118C22.7102 116.24 22.7102 115.759 22 114z"/>
<path style="fill:#ddfc53; stroke:none;" d="M23 114C23.6508 118.105 25.7951 120.457 29 123C29.903 118.174 27.9335 114.835 23 114z"/>
<path style="fill:#eafc8d; stroke:none;" d="M27 114C27.6836 115.58 27.8048 115.777 29 117C28.3164 115.42 28.1952 115.223 27 114z"/>
<path style="fill:#3e3e3c; stroke:none;" d="M135 114L136 115L135 114z"/>
<path style="fill:#6e6e6c; stroke:none;" d="M135 115L136 116L135 115z"/>
<path style="fill:#252524; stroke:none;" d="M46 116C49.6975 117.552 54.0168 117 58 117C54.3025 115.448 49.9832 116 46 116z"/>
<path style="fill:#8b8b89; stroke:none;" d="M136 116L137 117L136 116z"/>
<path style="fill:#dbdbd9; stroke:none;" d="M137 116C140.699 117.552 145.017 117 149 117L170 117C166.301 115.448 161.983 116 158 116L137 116z"/>
<path style="fill:#e0e0de; stroke:none;" d="M45 117C49.0421 118.696 53.3612 117.243 57 120C58.7305 115.409 47.8583 117 45 117z"/>
<path style="fill:#121211; stroke:none;" d="M58 117L58 122L43 122L43 145C45.6026 138.798 44 129.702 44 123L59 123C58.9528 120.747 58.8742 119.052 58 117z"/>
<path style="fill:#222220; stroke:none;" d="M137 117C140.699 118.552 145.017 118 149 118L170 118C166.301 116.448 161.983 117 158 117L137 117z"/>
<path style="fill:#999997; stroke:none;" d="M170 117L171 118L170 117z"/>
<path style="fill:#9e9e9c; stroke:none;" d="M171 118L172 119L171 118z"/>
<path style="fill:#e8fa87; stroke:none;" d="M25 119C25.6735 121.297 25.9653 121.774 28 123C27.0407 121.403 26.2741 120.341 25 119z"/>
<path style="fill:#effaa7; stroke:none;" d="M30 119L29 123C30.6556 121.596 30.7511 121.046 30 119z"/>
<path style="fill:#3d3d3b; stroke:none;" d="M171 119L172 120L171 119z"/>
<path style="fill:#acacaa; stroke:none;" d="M172 119L173 120L172 119z"/>
<path style="fill:#464644; stroke:none;" d="M172 120L173 121L172 120z"/>
<path style="fill:#b6b6b4; stroke:none;" d="M173.333 120.667C173.278 120.722 173.222 121.778 173.667 121.333C173.722 121.278 173.778 120.222 173.333 120.667z"/>
<path style="fill:#f5f9db; stroke:none;" d="M6 121L6 124L9 124L9 121L6 121z"/>
<path style="fill:#90918c; stroke:none;" d="M43 121C47.4714 122.876 53.1834 122 58 122C53.5286 120.124 47.8166 121 43 121z"/>
<path style="fill:#1e1e1c; stroke:none;" d="M138.333 121.667C138.278 121.722 138.222 122.778 138.667 122.333C138.722 122.278 138.778 121.222 138.333 121.667z"/>
<path style="fill:#6f6f6e; stroke:none;" d="M139 123C149.715 120.449 162.02 122 173 122C166.084 119.098 155.478 120.997 148 121C144.683 121.001 141.276 120.396 139 123z"/>
<path style="fill:#d8d8d6; stroke:none;" d="M42 122L42 146C44.3486 140.403 44.3486 127.597 42 122z"/>
<path style="fill:#f0f0ee; stroke:none;" d="M140 122C143.699 123.552 148.017 123 152 123L174 123C170.301 121.448 165.983 122 162 122L140 122z"/>
<path style="fill:#f9fed8; stroke:none;" d="M27 123C26.3164 124.58 26.1952 124.777 25 126C24.7808 128.262 24.9956 128.026 23 129C25.6978 129.969 28.1609 129.353 31 129C30.3129 126.825 29.9491 125.969 31 124C29.494 123.317 28.6852 123.174 27 123z"/>
<path style="fill:#9d9d9b; stroke:none;" d="M140 123L141 124L140 123z"/>
<path style="fill:#4b4b4a; stroke:none;" d="M140 124L141 125L140 124z"/>
<path style="fill:#c0c0be; stroke:none;" d="M141 124L142 125L141 124z"/>
<path style="fill:#f4facb; stroke:none;" d="M21 125L21 129L24 126C22.7516 125.315 22.4516 125.251 21 125z"/>
<path style="fill:#727270; stroke:none;" d="M141 125L142 126L141 125z"/>
<path style="fill:#effb9d; stroke:none;" d="M22 129L26 129C24.7218 126.102 22.7502 125.517 22 129z"/>
<path style="fill:#a1a1a0; stroke:none;" d="M142 126L143 127L142 126z"/>
<path style="fill:#545452; stroke:none;" d="M142 127L143 128L142 127z"/>
<path style="fill:#c2c2c0; stroke:none;" d="M143 127L144 128L143 127z"/>
<path style="fill:#f6fade; stroke:none;" d="M197 127L197 129L200 129L200 127L197 127z"/>
<path style="fill:#ddf26a; stroke:none;" d="M23.6667 128.333C23.2222 128.778 24.2778 128.722 24.3333 128.667C24.7778 128.222 23.7222 128.278 23.6667 128.333z"/>
<path style="fill:#7b7b79; stroke:none;" d="M143 128L144 129L143 128z"/>
<path style="fill:#f3f4e3; stroke:none;" d="M0 129L0 132L4 132L4 129L0 129z"/>
<path style="fill:#e6edb0; stroke:none;" d="M27.6667 129.333C27.2222 129.778 28.2778 129.722 28.3333 129.667C28.7778 129.222 27.7222 129.278 27.6667 129.333z"/>
<path style="fill:#b0b0b0; stroke:none;" d="M144 129L145 130L144 129z"/>
<path style="fill:#555555; stroke:none;" d="M144 130L145 131L144 130z"/>
<path style="fill:#0a0a0b; stroke:none;" d="M75 131C82.1686 134.008 93.2391 132 101 132C93.8314 128.992 82.7609 131 75 131z"/>
<path style="fill:#8e8e8e; stroke:none;" d="M145 131L146 132L145 131z"/>
<path style="fill:#292926; stroke:none;" d="M74 132L74 145C75.5909 141.209 75.5909 135.791 74 132z"/>
<path style="fill:#5f605c; stroke:none;" d="M75 132C82.1686 135.008 93.2391 133 101 133C93.8314 129.992 82.7609 132 75 132z"/>
<path style="fill:#2c2c2d; stroke:none;" d="M101 132C102.506 132.683 103.315 132.826 105 133C103.494 132.317 102.685 132.174 101 132z"/>
<path style="fill:#363636; stroke:none;" d="M145 132L146 133L145 132z"/>
<path style="fill:#ffffff; stroke:none;" d="M75 133L75 145L89 145C89 149.527 91.81 157.004 89 160C92.6182 162.122 94.4058 163.761 95 168L99 168L99 174C99.9845 171.668 99.9813 169.543 100 167L106 166L104 160C100.835 160.94 99.4866 161.201 97 159L104 159L104 153C101.544 152.688 98.4391 152.605 96.2068 151.441C93.6333 150.098 94.6968 147.985 97.0779 147.317C102.986 145.661 110.876 147 117 147L119 154L127 154C124.516 156.54 122.524 156.888 119 157C119.176 158.878 119.438 160.199 120 162C120.685 160.752 120.749 160.452 121 159L137 159C135.8 154.842 133.806 149.308 129.815 147.028C124.923 144.233 116.639 145.787 111 144C111.545 142.365 111.365 142.545 113 142C108.408 128.783 86.0872 133 75 133z"/>
<path style="fill:#cdcdd0; stroke:none;" d="M101 133C102.248 133.685 102.548 133.749 104 134C102.752 133.315 102.452 133.251 101 133z"/>
<path style="fill:#686869; stroke:none;" d="M104.667 133.333C104.222 133.778 105.278 133.722 105.333 133.667C105.778 133.222 104.722 133.278 104.667 133.333z"/>
<path style="fill:#1e1e1f; stroke:none;" d="M106.667 133.333C106.222 133.778 107.278 133.722 107.333 133.667C107.778 133.222 106.722 133.278 106.667 133.333z"/>
<path style="fill:#7a7a7a; stroke:none;" d="M146 133L147 134L146 133z"/>
<path style="fill:#fffffb; stroke:none;" d="M0 134L0 146C3.76466 146.157 5.52343 148.905 9 150C8.38721 148.339 7.95731 147.517 7 146L14 144C11.3634 149.609 16.2724 155.152 10 159C11.506 159.683 12.3148 159.826 14 160L13 166C15.8917 165.984 20.3093 165.027 22.9221 166.522C28.8762 169.929 20.0439 173.192 17 173C16.4253 176.968 18.4466 179.416 20 183C18.2032 183 18.4785 183.014 17 184L19 187L13 186C12.3917 189.222 12.6242 191.025 14 194L22 194L21 190C22.4566 191.103 22.8966 191.543 24 193C27.8457 191.078 31.8057 191.966 36 192L35 188L31 189C30.2176 187.416 29.1301 186.4 28 185L33 186C34.7403 184.019 35.4334 183.542 38 183C36.8137 184.186 36.4721 184.584 36 186C38.1236 186.899 38.1007 186.876 39 189L43 189C42.9683 193.221 42.6068 196.96 44 201C45.9822 196.276 45 190.09 45 185L52 185L52 182C42.8562 181.302 43.2843 169.35 44.1289 162.039C44.6211 157.778 46.5463 155.378 42 153C41.0746 156.24 40.012 157.495 37 159L37 153C34.7685 153.009 29.8669 154.798 29 154C28.3152 155.248 28.2512 155.548 28 157C27.446 150.864 29.373 144.401 29 138L27 138C26.5363 140.172 25.8945 141.958 25 144C26.7968 144 26.5215 144.014 28 145C25.3543 146.532 22.9893 147.358 20 148C19.2608 145.433 18.3175 143.327 17 141C12.6317 141.244 -1.35275 143.747 4 135C2.49397 134.317 1.6852 134.174 0 134z"/>
<path style="fill:#858486; stroke:none;" d="M107 134L108 135L107 134z"/>
<path style="fill:#bfbfbf; stroke:none;" d="M147 134L148 135L147 134z"/>
<path style="fill:#f6fad5; stroke:none;" d="M21 135C20.3164 136.58 20.1952 136.777 19 138L20 142L24 141L23 135L21 135z"/>
<path style="fill:#b5b5b3; stroke:none;" d="M108 135L109 136L108 135z"/>
<path style="fill:#666762; stroke:none;" d="M109 135L110 136L109 135z"/>
<path style="fill:#575757; stroke:none;" d="M147 135L148 136L147 135z"/>
<path style="fill:#f2f6d7; stroke:none;" d="M91 139C93.1236 138.101 93.1007 138.124 94 136C91.636 136.482 91.4825 136.636 91 139z"/>
<path style="fill:#7d7d7a; stroke:none;" d="M110 136L111 137L110 136z"/>
<path style="fill:#a9a9a9; stroke:none;" d="M148 136L149 137L148 136z"/>
<path style="fill:#7d7d7e; stroke:none;" d="M111 137L112 138L111 137z"/>
<path style="fill:#373737; stroke:none;" d="M148 137L149 138L148 137z"/>
<path style="fill:#6a6a6c; stroke:none;" d="M112 138L113 139L112 138z"/>
<path style="fill:#858585; stroke:none;" d="M149 138L150 139L149 138z"/>
<path style="fill:#c0c1bd; stroke:none;" d="M112 139L113 140L112 139z"/>
<path style="fill:#3c3d3a; stroke:none;" d="M113 139L114 140L113 139z"/>
<path style="fill:#cecece; stroke:none;" d="M150 139L151 140L150 139z"/>
<path style="fill:#f6fec1; stroke:none;" d="M30 140L30 146C30.9511 143.715 30.9511 142.285 30 140z"/>
<path style="fill:#e3f872; stroke:none;" d="M31 140C31 143.363 30.2842 146.204 34 147C32.5034 144.221 32.8251 143.221 35 141L31 140z"/>
<path style="fill:#eef3d3; stroke:none;" d="M84 140L84 143L87 143L87 140L84 140z"/>
<path style="fill:#96978c; stroke:none;" d="M113 140L114 141L113 140z"/>
<path style="fill:#6a6a6c; stroke:none;" d="M150 140L151 141L150 140z"/>
<path style="fill:#f0f1e9; stroke:none;" d="M113 141L111 142L111 144L116 146C115.199 143.896 114.503 142.663 113 141z"/>
<path style="fill:#616353; stroke:none;" d="M114 141L115 142L114 141z"/>
<path style="fill:#b0b0b2; stroke:none;" d="M151 141L152 142L151 141z"/>
<path style="fill:#defa55; stroke:none;" d="M32 142C32.6613 145.814 34.2594 146.57 38 147C37.0217 143.536 35.5265 142.518 32 142z"/>
<path style="fill:#ebf88a; stroke:none;" d="M36.3333 142.667C36.2778 142.722 36.2222 143.778 36.6667 143.333C36.7222 143.278 36.7778 142.222 36.3333 142.667z"/>
<path style="fill:#b9bca4; stroke:none;" d="M114 142L115 143L114 142z"/>
<path style="fill:#252527; stroke:none;" d="M151.333 142.667C151.278 142.722 151.222 143.778 151.667 143.333C151.722 143.278 151.778 142.222 151.333 142.667z"/>
<path style="fill:#7f8076; stroke:none;" d="M115 143L116 144L115 143z"/>
<path style="fill:#929294; stroke:none;" d="M152 143L153 144L152 143z"/>
<path style="fill:#fefefa; stroke:none;" d="M7 146L9 150C7.35019 149.146 6.41725 148.342 4.97994 147.188C2.98505 145.587 0.205811 145.525 0.447531 148.89C0.769204 153.367 5.35925 155.874 0 159L0 196C0 200.309 -1.41877 207.784 1.02778 211.54C4.79628 217.326 9.4632 214.133 14 212L14 215C16.7376 214.77 19.2671 214.707 22 215L21 219C22.7227 219.934 24.1062 220.535 26 221L26 213L32 214C31.6402 210.63 31.8829 207.378 32 204L28 204L28 198C26.6892 200.812 25.7125 203.97 25 207C17.1693 207.069 12.8596 209.218 7 203C11.4968 197.83 11.8007 192.46 13 186L19 187C18.3386 185.604 18.0356 185.186 17 184L20 183L19 179C18.3152 180.248 18.2512 180.548 18 182L14 180L14 184L12 184C12.1682 178.232 14.387 173.841 13 168L25 167C21.2153 165.099 17.1332 165.926 13 166L14 160L10 160C11.8161 158.703 12.8462 157.865 14 156C11.8764 155.101 11.8993 155.124 11 153L14 153C13.4088 149.649 13.0047 147.294 14 144C11.4877 144.334 9.38 145.146 7 146z"/>
<path style="fill:#f8fcdd; stroke:none;" d="M29 144C30.4275 148.702 33.4614 148.946 38 149C34.9207 147.31 31.8598 146.143 29 144z"/>
<path style="fill:#edfaa4; stroke:none;" d="M38 144L38 147C38.6961 145.446 38.6961 145.554 38 144z"/>
<path style="fill:#11110f; stroke:none;" d="M58 144C56.4585 149.215 57.2659 154.683 56 160C59.1623 157.237 58.9517 147.962 58 144z"/>
<path style="fill:#535352; stroke:none;" d="M116 144L117 145L116 144z"/>
<path style="fill:#c2c2bf; stroke:none;" d="M43 145C45.8897 146.213 48.8741 145.998 52 146C49.1103 144.787 46.1259 145.002 43 145z"/>
<path style="fill:#a7b268; stroke:none;" d="M52 145C53.5061 145.683 54.3148 145.826 56 146L56 150C56.7789 148.231 56.9124 146.964 57 145L52 145z"/>
<path style="fill:#3f3f3f; stroke:none;" d="M75 145C78.9587 146.661 83.7366 146 88 146C84.0413 144.339 79.2634 145 75 145z"/>
<path style="fill:#858585; stroke:none;" d="M88 145L89 146L88 145z"/>
<path style="fill:#c2c2c2; stroke:none;" d="M116 145C120.217 146.769 125.459 146 130 146C125.783 144.231 120.541 145 116 145z"/>
<path style="fill:#5d5d5d; stroke:none;" d="M130 145L131 146L130 145z"/>
<path style="fill:#3d3d3d; stroke:none;" d="M153 145C157.217 146.769 162.459 146 167 146C162.783 144.231 157.541 145 153 145z"/>
<path style="fill:#a3a3a1; stroke:none;" d="M167 145L168 146L167 145z"/>
<path style="fill:#fcfdea; stroke:none;" d="M51 146C50.4992 148.686 50.1174 151.27 50 154L56 155L56 150C54.3385 150.613 53.5166 151.043 52 152C51.9528 149.747 51.8742 148.052 51 146z"/>
<path style="fill:#f1fda3; stroke:none;" d="M52 146L52 152C54.6113 150.229 55.486 149.119 56 146L54 149L52 146z"/>
<path style="fill:#dbec77; stroke:none;" d="M53 146L53 149L55 149L55 146L53 146z"/>
<path style="fill:#5f5f5f; stroke:none;" d="M88 146L88 159C89.5909 155.209 89.5909 149.791 88 146z"/>
<path style="fill:#c6c6c6; stroke:none;" d="M130 146L131 147L130 146z"/>
<path style="fill:#1f1f1d; stroke:none;" d="M167.333 146.667C167.278 146.722 167.222 147.778 167.667 147.333C167.722 147.278 167.778 146.222 167.333 146.667z"/>
<path style="fill:#e9f78e; stroke:none;" d="M34 147C35.506 147.683 36.3148 147.826 38 148C36.494 147.317 35.6852 147.174 34 147z"/>
<path style="fill:#cececf; stroke:none;" d="M94 147C99.959 149.5 108.564 148 115 148C109.041 145.5 100.436 147 94 147z"/>
<path style="fill:#7d7d7d; stroke:none;" d="M131 147L132 148L131 147z"/>
<path style="fill:#878785; stroke:none;" d="M168 147L169 148L168 147z"/>
<path style="fill:#d3d3d1; stroke:none;" d="M93 148L93 151C93.6961 149.446 93.6961 149.554 93 148z"/>
<path style="fill:#636361; stroke:none;" d="M94.3333 148.667C94.2778 148.722 94.2222 149.778 94.6667 149.333C94.7222 149.278 94.7778 148.222 94.3333 148.667z"/>
<path style="fill:#222223; stroke:none;" d="M95 148C101.013 150.523 108.56 148.467 115 150C111.387 145.865 100.249 148 95 148z"/>
<path style="fill:#c4c4c2; stroke:none;" d="M115 148L115 151C115.696 149.446 115.696 149.554 115 148z"/>
<path style="fill:#c5c5c3; stroke:none;" d="M169 148L170 149L169 148z"/>
<path style="fill:#010200; stroke:none;" d="M95 149C100.469 151.295 108.099 150 114 150C108.531 147.705 100.901 149 95 149z"/>
<path style="fill:#a4a4a4; stroke:none;" d="M132 149L133 150L132 149z"/>
<path style="fill:#71716f; stroke:none;" d="M169 149L170 150L169 149z"/>
<path style="fill:#a4a4a6; stroke:none;" d="M56 150L56 159C57.2561 156.006 57.2561 152.994 56 150z"/>
<path style="fill:#90908e; stroke:none;" d="M94 150L95 151L94 150z"/>
<path style="fill:#575854; stroke:none;" d="M95 150C100.715 152.398 108.831 151 115 151C109.285 148.602 101.169 150 95 150z"/>
<path style="fill:#606060; stroke:none;" d="M133 150L134 151L133 150z"/>
<path style="fill:#ababa9; stroke:none;" d="M170 150L171 151L170 150z"/>
<path style="fill:#eff4c7; stroke:none;" d="M202 150L202 153L205 153L205 150L202 150z"/>
<path style="fill:#dff568; stroke:none;" d="M0 151L0 157L2 157L2 151L0 151z"/>
<path style="fill:#e2e2df; stroke:none;" d="M94 151C99.959 153.5 108.564 152 115 152C109.041 149.5 100.436 151 94 151z"/>
<path style="fill:#5c5c5a; stroke:none;" d="M170 151L171 152L170 151z"/>
<path style="fill:#e9f795; stroke:none;" d="M2 152L2 157C2.82989 154.97 2.8299 154.03 2 152z"/>
<path style="fill:#747474; stroke:none;" d="M134 152L135 153L134 152z"/>
<path style="fill:#999997; stroke:none;" d="M171 152L172 153L171 152z"/>
<path style="fill:#eff5c9; stroke:none;" d="M11 153L11 156L14 156L14 153L11 153z"/>
<path style="fill:#373737; stroke:none;" d="M135 153L136 154L135 153z"/>
<path style="fill:#50504e; stroke:none;" d="M171 153L172 154L171 153z"/>
<path style="fill:#ccccca; stroke:none;" d="M172 153L173 154L172 153z"/>
<path style="fill:#f5fdc5; stroke:none;" d="M49.3333 154.667C49.2778 154.722 49.2222 155.778 49.6667 155.333C49.7222 155.278 49.7778 154.222 49.3333 154.667z"/>
<path style="fill:#eaf79e; stroke:none;" d="M50 154C51.2484 154.685 51.5484 154.749 53 155C51.7517 154.315 51.4516 154.251 50 154z"/>
<path style="fill:#9f9f9f; stroke:none;" d="M135 154L136 155L135 154z"/>
<path style="fill:#858583; stroke:none;" d="M172 154L173 155L172 154z"/>
<path style="fill:#faffd4; stroke:none;" d="M3 155L1 159C2.99643 157.756 3.55761 157.308 3 155z"/>
<path style="fill:#e1f769; stroke:none;" d="M50 157C52.2616 157.219 52.0257 157.004 53 159C53.683 157.494 53.8259 156.685 54 155C51.8772 155.307 51.314 155.382 50 157z"/>
<path style="fill:#edfe85; stroke:none;" d="M54 155L54 159C54.7102 157.241 54.7102 156.759 54 155z"/>
<path style="fill:#f2fabd; stroke:none;" d="M55 155L55 159C55.7102 157.241 55.7102 156.759 55 155z"/>
<path style="fill:#eef3cc; stroke:none;" d="M89 155C89.2107 157.739 89.3025 158.422 92 159C91.2235 156.868 90.8698 156.229 89 155z"/>
<path style="fill:#545454; stroke:none;" d="M136 155L137 156L136 155z"/>
<path style="fill:#3a3a38; stroke:none;" d="M172 155L173 156L172 155z"/>
<path style="fill:#c4c4c2; stroke:none;" d="M173 155L174 156L173 155z"/>
<path style="fill:#f0f9b8; stroke:none;" d="M194 155L194 157L196 157L196 155L194 155z"/>
<path style="fill:#eefd99; stroke:none;" d="M49 156L49 159C49.6961 157.446 49.6961 157.554 49 156z"/>
<path style="fill:#e0fd55; stroke:none;" d="M51 156L50 157L50 159C52.364 158.518 52.5175 158.364 53 156L51 156z"/>
<path style="fill:#b7b7b7; stroke:none;" d="M136 156L137 157L136 156z"/>
<path style="fill:#757574; stroke:none;" d="M173 156L174 157L173 156z"/>
<path style="fill:#dfeb97; stroke:none;" d="M0 157L0 159C1.63516 158.455 1.45495 158.635 2 157L0 157z"/>
<path style="fill:#f8fed0; stroke:none;" d="M48.3333 157.667C48.2778 157.722 48.2222 158.778 48.6667 158.333C48.7222 158.278 48.7778 157.222 48.3333 157.667z"/>
<path style="fill:#6d6d6d; stroke:none;" d="M137 157L138 158L137 157z"/>
<path style="fill:#aeaeac; stroke:none;" d="M174 157L175 158L174 157z"/>
<path style="fill:#cdcdcd; stroke:none;" d="M137 158L138 159L137 158z"/>
<path style="fill:#232323; stroke:none;" d="M138.333 158.667C138.278 158.722 138.222 159.778 138.667 159.333C138.722 159.278 138.778 158.222 138.333 158.667z"/>
<path style="fill:#5c5c5a; stroke:none;" d="M174 158L175 159L174 158z"/>
<path style="fill:#e2e3df; stroke:none;" d="M175.333 158.667C175.278 158.722 175.222 159.778 175.667 159.333C175.722 159.278 175.778 158.222 175.333 158.667z"/>
<path style="fill:#494a45; stroke:none;" d="M46 159C49.1633 160.327 52.5856 160 56 160C52.8367 158.673 49.4144 159 46 159z"/>
<path style="fill:#343434; stroke:none;" d="M77 159L77 181C79.2187 175.713 79.2187 164.287 77 159z"/>
<path style="fill:#acacac; stroke:none;" d="M78 159C81.4324 160.44 85.2998 160 89 160C85.5676 158.56 81.7002 159 78 159z"/>
<path style="fill:#b6b5b3; stroke:none;" d="M130.333 159.667C130.278 159.722 130.222 160.778 130.667 160.333C130.722 160.278 130.778 159.222 130.333 159.667z"/>
<path style="fill:#555555; stroke:none;" d="M131 159C133.332 159.985 135.457 159.981 138 160C135.668 159.015 133.543 159.019 131 159z"/>
<path style="fill:#5b5b59; stroke:none;" d="M167.333 159.667C167.278 159.722 167.222 160.778 167.667 160.333C167.722 160.278 167.778 159.222 167.333 159.667z"/>
<path style="fill:#b0b0ae; stroke:none;" d="M168 159C170.332 159.985 172.457 159.981 175 160C172.668 159.015 170.543 159.019 168 159z"/>
<path style="fill:#c2c2c2; stroke:none;" d="M45 160L45 181C47.153 175.869 47.153 165.131 45 160z"/>
<path style="fill:#e2e2e2; stroke:none;" d="M78 160L78 181C89.2866 181 101.988 179.378 113 182C110.565 179.214 106.516 180 103 180L79 180C79 173.831 80.398 165.715 78 160z"/>
<path style="fill:#fdfeed; stroke:none;" d="M126 162C128.754 167.259 130.244 173.475 136 176C136.871 172.427 136.656 170.285 133 169C132.846 165.95 132.329 163.75 131 161L126 162z"/>
<path style="fill:#6b6a6d; stroke:none;" d="M131 161L132 162L131 161z"/>
<path style="fill:#979795; stroke:none;" d="M168 161L169 162L168 161z"/>
<path style="fill:#eef6c0; stroke:none;" d="M192 161L192 163L194 163L194 161L192 161z"/>
<path style="fill:#eef3cb; stroke:none;" d="M121 163C121.211 165.739 121.303 166.422 124 167L123 163L121 163z"/>
<path style="fill:#858382; stroke:none;" d="M132 163L133 164L132 163z"/>
<path style="fill:#7f7f7d; stroke:none;" d="M169 163L170 164L169 163z"/>
<path style="fill:#f6f8de; stroke:none;" d="M7 164L7 167L10 167L10 164L7 164z"/>
<path style="fill:#42413f; stroke:none;" d="M133 164L134 165L133 164z"/>
<path style="fill:#b7b7b5; stroke:none;" d="M170 164L171 165L170 164z"/>
<path style="fill:#b3b3a8; stroke:none;" d="M133 165L134 166L133 165z"/>
<path style="fill:#6c6c6a; stroke:none;" d="M170 165L171 166L170 165z"/>
<path style="fill:#e7e8e3; stroke:none;" d="M133 166C133.406 168.092 133.217 168.02 135 169C134.316 167.42 134.195 167.223 133 166z"/>
<path style="fill:#585956; stroke:none;" d="M134 166L135 167L134 166z"/>
<path style="fill:#a2a2a0; stroke:none;" d="M171 166L172 167L171 166z"/>
<path style="fill:#ecf89a; stroke:none;" d="M14 167C15.2483 167.685 15.5484 167.749 17 168C15.7516 167.315 15.4516 167.251 14 167z"/>
<path style="fill:#fdffe5; stroke:none;" d="M17 167L19 172L14 172C13.4728 176.141 12.0474 179.745 12 184L14 184L14 180C16.0817 179.84 16.5257 179.528 18 178C17.1155 175.9 16.9647 175.26 17 173C20.1211 173.57 22.0384 173.03 25 172C22.6117 169.346 20.4517 167.931 17 167z"/>
<path style="fill:#ecf5b4; stroke:none;" d="M22 167C22.8387 169.626 23.3735 170.161 26 171C25.1613 168.374 24.6265 167.839 22 167z"/>
<path style="fill:#575755; stroke:none;" d="M171 167L172 168L171 167z"/>
<path style="fill:#e0eb9e; stroke:none;" d="M13.3333 168.667C13.2778 168.722 13.2222 169.778 13.6667 169.333C13.7222 169.278 13.7778 168.222 13.3333 168.667z"/>
<path style="fill:#dbf656; stroke:none;" d="M14 168L14 172L19 172C18.0317 169.036 17.0661 168.497 14 168z"/>
<path style="fill:#80807c; stroke:none;" d="M135 168L136 169L135 168z"/>
<path style="fill:#91918f; stroke:none;" d="M172 168L173 169L172 168z"/>
<path style="fill:#464645; stroke:none;" d="M172 169L173 170L172 169z"/>
<path style="fill:#c7c8c4; stroke:none;" d="M173 169L174 170L173 169z"/>
<path style="fill:#9a9b96; stroke:none;" d="M136 170L137 171L136 170z"/>
<path style="fill:#80807d; stroke:none;" d="M173 170L174 171L173 170z"/>
<path style="fill:#4f504a; stroke:none;" d="M137 171L138 172L137 171z"/>
<path style="fill:#bebeba; stroke:none;" d="M174 171L175 172L174 171z"/>
<path style="fill:#ebf6a4; stroke:none;" d="M8 176C10.1208 174.919 10.9187 174.121 12 172C9.75107 173.154 9.15355 173.751 8 176z"/>
<path style="fill:#d3d3ce; stroke:none;" d="M137.333 172.667C137.278 172.722 137.222 173.778 137.667 173.333C137.722 173.278 137.778 172.222 137.333 172.667z"/>
<path style="fill:#6b6b68; stroke:none;" d="M174 172L175 173L174 172z"/>
<path style="fill:#b7b8b4; stroke:none;" d="M175.333 172.667C175.278 172.722 175.222 173.778 175.667 173.333C175.722 173.278 175.778 172.222 175.333 172.667z"/>
<path style="fill:#f4f9d6; stroke:none;" d="M190 172C191.139 173.015 191.612 173.309 193 174C192.02 172.217 192.092 172.406 190 172z"/>
<path style="fill:#676864; stroke:none;" d="M138 173L139 174L138 173z"/>
<path style="fill:#e5eeab; stroke:none;" d="M190.667 173.333C190.222 173.778 191.278 173.722 191.333 173.667C191.778 173.222 190.722 173.278 190.667 173.333z"/>
<path style="fill:#eff6c5; stroke:none;" d="M28 174L28 176L31 176L31 174L28 174z"/>
<path style="fill:#e0e0e1; stroke:none;" d="M138.333 174.667C138.278 174.722 138.222 175.778 138.667 175.333C138.722 175.278 138.778 174.222 138.333 174.667z"/>
<path style="fill:#4c4c4c; stroke:none;" d="M175 174L176 175L175 174z"/>
<path style="fill:#f8fddb; stroke:none;" d="M37 179C38.6662 177.745 40.0987 176.841 42 176C39.0116 175.017 37.9372 176.15 37 179z"/>
<path style="fill:#fafde8; stroke:none;" d="M89 175C89.6613 178.814 91.2594 179.57 95 180C93.9462 176.825 92.1967 175.805 89 175z"/>
<path style="fill:#7b7b7d; stroke:none;" d="M139 175L140 176L139 175z"/>
<path style="fill:#949494; stroke:none;" d="M176 175L177 176L176 175z"/>
<path style="fill:#ddf65c; stroke:none;" d="M39 176C39.6514 178.434 40.1602 179.283 42 181L42 176L39 176z"/>
<path style="fill:#404041; stroke:none;" d="M140 176L141 177L140 176z"/>
<path style="fill:#e5f48d; stroke:none;" d="M38 177C38.9342 180.127 39.8734 181.066 43 182L43 177C42.317 178.506 42.1741 179.315 42 181L38 177z"/>
<path style="fill:#878786; stroke:none;" d="M140 177L141 178L140 177z"/>
<path style="fill:#737373; stroke:none;" d="M177 177L178 178L177 177z"/>
<path style="fill:#f7fae1; stroke:none;" d="M195 177L195 180L198 180L198 177L195 177z"/>
<path style="fill:#f4fcc7; stroke:none;" d="M43 178C42.3265 180.297 42.0347 180.774 40 182C41.506 182.683 42.3148 182.826 44 183C43.9124 181.036 43.7789 179.769 43 178z"/>
<path style="fill:#50514d; stroke:none;" d="M141 178L142 179L141 178z"/>
<path style="fill:#c3c3c3; stroke:none;" d="M178 178L179 179L178 178z"/>
<path style="fill:#ebf2b5; stroke:none;" d="M16 179L16 182L18 182L18 179L16 179z"/>
<path style="fill:#95978f; stroke:none;" d="M141 179L142 180L141 179z"/>
<path style="fill:#5a5a5a; stroke:none;" d="M178 179L179 180L178 179z"/>
<path style="fill:#181911; stroke:none;" d="M46 180C48.3316 180.985 50.4566 180.981 53 181C50.6684 180.015 48.5433 180.019 46 180z"/>
<path style="fill:#6c6d65; stroke:none;" d="M142 180L143 181L142 180z"/>
<path style="fill:#1e1e1e; stroke:none;" d="M143 180C146.432 181.44 150.3 181 154 181C150.568 179.56 146.7 180 143 180z"/>
<path style="fill:#a6a7a2; stroke:none;" d="M179 180L180 181L179 180z"/>
<path style="fill:#e2e2e1; stroke:none;" d="M180 180C183.432 181.44 187.3 181 191 181C187.568 179.56 183.7 180 180 180z"/>
<path style="fill:#f6f9de; stroke:none;" d="M22 189L27 186C25.6959 178.176 22.057 184.188 22 189z"/>
<path style="fill:#a8aa9c; stroke:none;" d="M46 181C48.0521 181.874 49.7472 181.953 52 182L52 186C52.7789 184.231 52.9124 182.964 53 181L46 181z"/>
<path style="fill:#2f302a; stroke:none;" d="M53 181L53 186C53.8299 183.97 53.8299 183.03 53 181z"/>
<path style="fill:#5e5e5e; stroke:none;" d="M78 181C81.6986 182.552 86.0172 182 90 182L112 182C108.301 180.448 103.983 181 100 181L78 181z"/>
<path style="fill:#cecfc8; stroke:none;" d="M142 181L143 182L142 181z"/>
<path style="fill:#949688; stroke:none;" d="M143 181C145.052 181.874 146.747 181.953 149 182C146.948 181.126 145.253 181.047 143 181z"/>
<path style="fill:#a1a1a1; stroke:none;" d="M149 181C150.769 181.779 152.036 181.912 154 182C152.231 181.221 150.964 181.088 149 181z"/>
<path style="fill:#535353; stroke:none;" d="M154 181L155 182L154 181z"/>
<path style="fill:#626262; stroke:none;" d="M180 181C183.432 182.44 187.3 182 191 182C187.568 180.56 183.7 181 180 181z"/>
<path style="fill:#b0b0a9; stroke:none;" d="M191 181L192 182L191 181z"/>
<path style="fill:#e5f0a1; stroke:none;" d="M24 182C24.4057 184.092 24.2167 184.02 26 185C25.3164 183.42 25.1952 183.223 24 182z"/>
<path style="fill:#fefefc; stroke:none;" d="M33 186L28 185C28.7824 186.584 29.8699 187.6 31 189L35 188L36 192C31.7231 191.912 27.6832 190.52 24 193C23.1007 190.876 23.1236 190.899 21 190L22 194C19.2 193.703 16.7833 193.555 14 194L13 191C11.0775 195.09 9.41062 199.101 7 203C12.0505 210.388 17.3552 207.179 25 207C24.5029 203.934 23.9641 202.968 21 202C23.1531 199.399 24.656 198.507 28 198L28 204L32 204C32.2162 210.52 34.9461 209.9 39.6211 213.008C41.598 214.323 42.5297 216.702 44.5285 217.973C48.1516 220.276 54.8609 219 59 219C59.2439 222.679 61.182 225.826 59 229C65.1518 231.479 72.0803 224.502 74 219L64 221C64 216.887 64.1706 212.96 63 209C66.6977 209.589 70.2695 209.075 74 209C74.8868 215.051 81.3209 218.856 87 220C86.4023 218.805 86.5339 219.023 85 218L89 217C85.7715 214.636 83.5128 212.797 82 209L91 210C89.7517 209.315 89.4516 209.251 88 209C88.572 206.623 88.8905 204.442 89 202C81.824 208.329 61.9975 211.369 57 201C53.0321 201 45.8948 202.347 43.6034 198.137C42.2489 195.649 42.9946 191.733 43 189L39 189C38.5175 186.636 38.364 186.482 36 186C37.1863 184.814 37.5279 184.416 38 183C35.0383 182.918 34.4394 183.393 33 186z"/>
<path style="fill:#272727; stroke:none;" d="M111 182C108.666 185.6 105.005 184.998 101 185L77 185C80.6986 186.552 85.0172 186 89 186L112 186C111.826 184.315 111.683 183.506 111 182z"/>
<path style="fill:#a0a09f; stroke:none;" d="M112 182L112 186C112.71 184.241 112.71 183.759 112 182z"/>
<path style="fill:#a7a7a7; stroke:none;" d="M154 182L155 183L154 182z"/>
<path style="fill:#484942; stroke:none;" d="M191 182L192 183L191 182z"/>
<path style="fill:#737373; stroke:none;" d="M155 183L156 184L155 183z"/>
<path style="fill:#84857b; stroke:none;" d="M192 183L193 184L192 183z"/>
<path style="fill:#d8d8d8; stroke:none;" d="M155 184C150.929 185.488 143.063 183.04 142 188C144.69 186.315 155.953 186.308 155 184z"/>
<path style="fill:#595959; stroke:none;" d="M156.333 184.667C156.278 184.722 156.222 185.778 156.667 185.333C156.722 185.278 156.778 184.222 156.333 184.667z"/>
<path style="fill:#282825; stroke:none;" d="M192 184C188.04 185.171 184.113 185 180 185C182.043 186.177 193.362 187.298 192 184z"/>
<path style="fill:#bfc0b6; stroke:none;" d="M193 184L194 185L193 184z"/>
<path style="fill:#d9dbd1; stroke:none;" d="M45 185C47.3315 185.985 49.4567 185.981 52 186C49.6684 185.015 47.5433 185.019 45 185z"/>
<path style="fill:#7b7c76; stroke:none;" d="M193 185L194 186L193 185z"/>
<path style="fill:#5c5c5a; stroke:none;" d="M45 186L45 200C46.6668 196.028 46.6668 189.972 45 186z"/>
<path style="fill:#252622; stroke:none;" d="M46 186C48.3316 186.985 50.4566 186.981 53 187C50.6684 186.015 48.5433 186.019 46 186z"/>
<path style="fill:#131311; stroke:none;" d="M76 186L76 201C77.7404 196.852 77.7404 190.148 76 186z"/>
<path style="fill:#81817f; stroke:none;" d="M77 186L77 200C78.6668 196.028 78.6668 189.972 77 186z"/>
<path style="fill:#d8d8d9; stroke:none;" d="M78 186C81.6986 187.552 86.0172 187 90 187L112 187C108.301 185.448 103.983 186 100 186L78 186z"/>
<path style="fill:#4a4a4a; stroke:none;" d="M143.333 186.667C143.278 186.722 143.222 187.778 143.667 187.333C143.722 187.278 143.778 186.222 143.333 186.667z"/>
<path style="fill:#272727; stroke:none;" d="M144 186C147.959 187.661 152.737 187 157 187C153.041 185.339 148.263 186 144 186z"/>
<path style="fill:#36353a; stroke:none;" d="M179 186L180 187L179 186z"/>
<path style="fill:#d5d5d5; stroke:none;" d="M180 186C184.217 187.769 189.459 187 194 187C189.783 185.231 184.541 186 180 186z"/>
<path style="fill:#98979c; stroke:none;" d="M180 187L181 188L180 187z"/>
<path style="fill:#949494; stroke:none;" d="M143 188L144 189L143 188z"/>
<path style="fill:#ffffff; stroke:none;" d="M88 209C90.9982 210.941 90.9836 213.703 92 217C89.558 217.11 87.3771 217.428 85 218C85.6498 219.3 85.1468 219 87 219C81.4918 218.88 75.4026 214.381 74 209L63 209C63.9565 213.017 63.9995 216.887 64 221L74 219C71.6976 223.018 67.7854 226.206 65 230L114 230C110.877 223.835 109.702 218.322 102 221C101.536 218.828 100.895 217.042 100 215C102.114 214.925 103.088 215.101 105 216C105.562 214.199 105.824 212.878 106 211C107.666 212.202 109.139 213.16 111 214L110 208C111.479 208.986 111.203 209 113 209L111 202L107 202C105.536 196.684 101.915 194.892 104 189C100.315 189 93.9297 187.796 90.8935 190.318C87.1209 193.452 88.8632 204.35 88 209z"/>
<path style="fill:#52534e; stroke:none;" d="M144 189L145 190L144 189z"/>
<path style="fill:#696969; stroke:none;" d="M181 189L182 190L181 189z"/>
<path style="fill:#a9aaa5; stroke:none;" d="M144 190L145 191L144 190z"/>
<path style="fill:#b9b9b9; stroke:none;" d="M182 190L183 191L182 190z"/>
<path style="fill:#676765; stroke:none;" d="M145 191L146 192L145 191z"/>
<path style="fill:#5c5c5c; stroke:none;" d="M182 191L183 192L182 191z"/>
<path style="fill:#bebebe; stroke:none;" d="M145 192L146 193L145 192z"/>
<path style="fill:#9e9e9e; stroke:none;" d="M183 192L184 193L183 192z"/>
<path style="fill:#79797a; stroke:none;" d="M146 193L147 194L146 193z"/>
<path style="fill:#262626; stroke:none;" d="M183.333 193.667C183.278 193.722 183.222 194.778 183.667 194.333C183.722 194.278 183.778 193.222 183.333 193.667z"/>
<path style="fill:#363539; stroke:none;" d="M147 194L148 195L147 194z"/>
<path style="fill:#8a8a8a; stroke:none;" d="M184 194L185 195L184 194z"/>
<path style="fill:#f0f5d2; stroke:none;" d="M204 194L204 196L206 196L206 194L204 194z"/>
<path style="fill:#f1f1ef; stroke:none;" d="M108 195C116.128 198.411 129.186 196 138 196C129.872 192.589 116.814 195 108 195z"/>
<path style="fill:#949496; stroke:none;" d="M147 195L148 196L147 195z"/>
<path style="fill:#c2c2c2; stroke:none;" d="M185 195L186 196L185 195z"/>
<path style="fill:#bbbcb8; stroke:none;" d="M107 196L107 199C107.696 197.446 107.696 197.554 107 196z"/>
<path style="fill:#6f6f6f; stroke:none;" d="M108 196C116.128 199.411 129.186 197 138 197C129.872 193.589 116.814 196 108 196z"/>
<path style="fill:#c9c9ca; stroke:none;" d="M138 196L138 199C138.696 197.446 138.696 197.554 138 196z"/>
<path style="fill:#434344; stroke:none;" d="M148 196L149 197L148 196z"/>
<path style="fill:#7c7c7c; stroke:none;" d="M185 196L186 197L185 196z"/>
<path style="fill:#000000; stroke:none;" d="M108 197C115.888 200.31 128.449 198 137 198C129.112 194.69 116.551 197 108 197z"/>
<path style="fill:#313133; stroke:none;" d="M137 197L138 198L137 197z"/>
<path style="fill:#b7b7b6; stroke:none;" d="M148 197L149 198L148 197z"/>
<path style="fill:#979797; stroke:none;" d="M186 197L186 200C186.696 198.446 186.696 198.554 186 197z"/>
<path style="fill:#fdffde; stroke:none;" d="M21 202L25 203L25 198C22.7511 199.154 22.1536 199.751 21 202z"/>
<path style="fill:#eff8ae; stroke:none;" d="M25 198L25 204L27 204L27 198L25 198z"/>
<path style="fill:#767774; stroke:none;" d="M108 198C116.128 201.411 129.186 199 138 199C129.872 195.589 116.814 198 108 198z"/>
<path style="fill:#61615f; stroke:none;" d="M149 198L150 199L149 198z"/>
<path style="fill:#fefefb; stroke:none;" d="M107 199C107.578 201.697 108.261 201.789 111 202C111.334 204.512 112.146 206.62 113 209L110 208L111 214L106 211L105 216C102.924 214.598 102.459 214.518 100 215L102 221C104.401 220.506 105.853 219.865 108 221C108.874 218.948 108.953 217.253 109 215C115.024 217.814 118.562 223.408 119 230L160 230C159.438 226.975 159.064 224.078 159 221C156.874 221.231 155.121 221.246 153 221L153 219C156.055 217.805 158.733 216.466 162 216L162 212L158 212L159 208C156.087 208.084 154.382 208.322 152 210C150.694 207.159 149.568 204.801 147 203C146.935 205.444 146.532 207.61 146 210C142.233 207.74 138.329 205.823 134 205C135.479 204.014 135.203 204 137 204L137 200C127.247 200 116.523 201.267 107 199z"/>
<path style="fill:#e9eae5; stroke:none;" d="M108 199C116.128 202.411 129.186 200 138 200C129.872 196.589 116.814 199 108 199z"/>
<path style="fill:#bebebc; stroke:none;" d="M45 200L46 201L45 200z"/>
<path style="fill:#898989; stroke:none;" d="M46 200C49.1633 201.327 52.5856 201 56 201C52.8367 199.673 49.4144 200 46 200z"/>
<path style="fill:#595959; stroke:none;" d="M56 200L57 201L56 200z"/>
<path style="fill:#4c4c4a; stroke:none;" d="M77 200L78 201L77 200z"/>
<path style="fill:#767674; stroke:none;" d="M78 200C81.1633 201.327 84.5856 201 88 201C84.8367 199.673 81.4144 200 78 200z"/>
<path style="fill:#bdbdbb; stroke:none;" d="M88.3333 200.667C88.2778 200.722 88.2222 201.778 88.6667 201.333C88.7222 201.278 88.7778 200.222 88.3333 200.667z"/>
<path style="fill:#898988; stroke:none;" d="M150 200C153.697 201.552 158.017 201 162 201C158.303 199.448 153.983 200 150 200z"/>
<path style="fill:#3c3c3c; stroke:none;" d="M186 200L187 201L186 200z"/>
<path style="fill:#757575; stroke:none;" d="M187 200C190.432 201.44 194.3 201 198 201C194.568 199.56 190.7 200 187 200z"/>
<path style="fill:#10100e; stroke:none;" d="M77 201C80.4035 202.429 84.3643 202.134 88 203C85.421 200.049 80.7059 201 77 201z"/>
<path style="fill:#efefed; stroke:none;" d="M151 201C154.432 202.44 158.3 202 162 202C158.568 200.56 154.7 201 151 201z"/>
<path style="fill:#4e4e4c; stroke:none;" d="M162 201L163 202L162 201z"/>
<path style="fill:#484944; stroke:none;" d="M197 201L197 204C197.696 202.446 197.696 202.554 197 201z"/>
<path style="fill:#a4a4a2; stroke:none;" d="M162 202L163 203L162 202z"/>
<path style="fill:#7a7a7a; stroke:none;" d="M57 203L58 204L57 203z"/>
<path style="fill:#8c8c8a; stroke:none;" d="M87 203L88 204L87 203z"/>
<path style="fill:#60605e; stroke:none;" d="M163 203L164 204L163 203z"/>
<path style="fill:#434341; stroke:none;" d="M58 204L59 205L58 204z"/>
<path style="fill:#090909; stroke:none;" d="M59 205C66.1686 208.008 77.239 206 85 206L85 204L59 205z"/>
<path style="fill:#555651; stroke:none;" d="M86 204L87 205L86 204z"/>
<path style="fill:#fbfee5; stroke:none;" d="M122 204C121.101 206.124 121.124 206.101 119 207C121.342 209.226 122.516 210.781 123 214C127.241 213.086 124.891 207.692 125 204L122 204z"/>
<path style="fill:#20201e; stroke:none;" d="M164.667 204.333C164.222 204.778 165.278 204.722 165.333 204.667C165.778 204.222 164.722 204.278 164.667 204.333z"/>
<path style="fill:#f4facb; stroke:none;" d="M27 205L27 208L30 208L30 205L27 205z"/>
<path style="fill:#626263; stroke:none;" d="M85 205L86 206L85 205z"/>
<path style="fill:#656564; stroke:none;" d="M165 205L166 206L165 205z"/>
<path style="fill:#42423e; stroke:none;" d="M195 205L196 206L195 205z"/>
<path style="fill:#b7b8b4; stroke:none;" d="M196 205L197 206L196 205z"/>
<path style="fill:#c0c0c0; stroke:none;" d="M60 206L61 207L60 206z"/>
<path style="fill:#6a6a6a; stroke:none;" d="M61 206C67.4448 208.704 77.0322 207 84 207C77.5552 204.296 67.9678 206 61 206z"/>
<path style="fill:#bab9bd; stroke:none;" d="M84 206L85 207L84 206z"/>
<path style="fill:#c5c5c3; stroke:none;" d="M166 206L167 207L166 206z"/>
<path style="fill:#6a6a6a; stroke:none;" d="M167 206C174.409 209.109 185.975 207 194 207C186.591 203.891 175.025 206 167 206z"/>
<path style="fill:#aaaba9; stroke:none;" d="M194 206L195 207L194 206z"/>
<path style="fill:#f2fcb0; stroke:none;" d="M119 208C120.248 208.685 120.548 208.749 122 209C120.752 208.315 120.452 208.251 119 208z"/>
<path style="fill:#e9eec2; stroke:none;" d="M148 208C148.899 210.124 148.876 210.101 151 211C150.098 209.077 149.924 209.001 148 208z"/>
<path style="fill:#ffffff; stroke:none;" d="M31 209L32 214L26 213L26 221L21 219L22 215C19.1369 214.438 16.8766 214.524 14 215L14 212C7.78414 213.791 6.36635 214.401 0 212C0.0780012 234.084 25.7479 230 41 230C45.2829 230 57.0166 232.032 59.9537 228.272C61.7229 226.007 59.3232 221.539 59 219C55.1175 219 49.8237 219.92 46.1852 218.397C43.5784 217.305 42.5961 214.572 40.3912 213.008C37.8072 211.176 33.9204 210.295 31 209z"/>
<path style="fill:#fcfeed; stroke:none;" d="M82 209C83.5471 215.161 90.3458 218.202 91 210L82 209z"/>
<path style="fill:#dbf35c; stroke:none;" d="M119 209L119 212L122 212L122 209L119 209z"/>
<path style="fill:#e0f279; stroke:none;" d="M122 210C120.777 211.195 120.58 211.316 119 212C121.139 212.952 122.976 212.577 122 210z"/>
<path style="fill:#f2f7bf; stroke:none;" d="M23 211L23 214L25 214L25 211L23 211z"/>
<path style="fill:#eef6c1; stroke:none;" d="M87 211L87 215C88.8698 213.771 89.2235 213.132 90 211L87 211z"/>
<path style="fill:#edf8a8; stroke:none;" d="M123.333 211.667C123.278 211.722 123.222 212.778 123.667 212.333C123.722 212.278 123.778 211.222 123.333 211.667z"/>
<path style="fill:#f3f7d3; stroke:none;" d="M184 211C185.226 213.035 185.703 213.326 188 214C187.422 211.303 186.739 211.211 184 211z"/>
<path style="fill:#f1fab5; stroke:none;" d="M119 213C120.506 213.683 121.315 213.826 123 214C121.494 213.317 120.685 213.174 119 213z"/>
<path style="fill:#f2f4dc; stroke:none;" d="M145 214L145 216L147 216L147 214L145 214z"/>
<path style="fill:#eef5c7; stroke:none;" d="M89 215C89.9802 216.783 89.9076 216.594 92 217C90.7772 215.805 90.58 215.684 89 215z"/>
<path style="fill:#fbffdf; stroke:none;" d="M109 215C110.588 216.627 112.078 217.774 114 219C112.627 216.453 111.782 215.812 109 215z"/>
<path style="fill:#edfb95; stroke:none;" d="M109 216L109 219C110.015 217.861 110.309 217.388 111 216L109 216z"/>
<path style="fill:#e0f471; stroke:none;" d="M110 220C111.388 219.309 111.861 219.015 113 218C110.604 217.425 110.513 217.525 110 220z"/>
<path style="fill:#f2fcb7; stroke:none;" d="M109 219L111 226C112.169 222.897 111.302 221.251 109 219z"/>
<path style="fill:#ddfa56; stroke:none;" d="M111 219C112.335 223.98 113.357 229.042 119 230C118.337 224.937 116.152 220.441 111 219z"/>
<path style="fill:#e8fb82; stroke:none;" d="M114.333 219.667C114.278 219.722 114.222 220.778 114.667 220.333C114.722 220.278 114.778 219.222 114.333 219.667z"/>
<path style="fill:#f3febb; stroke:none;" d="M115.333 219.667C115.278 219.722 115.222 220.778 115.667 220.333C115.722 220.278 115.778 219.222 115.333 219.667z"/>
<path style="fill:#eff3d1; stroke:none;" d="M153 219C154.226 221.035 154.703 221.326 157 222C155.774 219.965 155.297 219.674 153 219z"/>
<path style="fill:#e1e2cf; stroke:none;" d="M0 220C2.27563 224.839 6.11141 227.93 11 230C8.01398 225.943 4.14945 222.837 0 220z"/>
<path style="fill:#e6e6e4; stroke:none;" d="M207 220C203.476 223.247 199.808 226.096 197 230C201.12 228.256 207.105 224.951 207 220z"/>
<path style="fill:#f2fca8; stroke:none;" d="M116.333 221.667C116.278 221.722 116.222 222.778 116.667 222.333C116.722 222.278 116.778 221.222 116.333 221.667z"/>
<path style="fill:#858584; stroke:none;" d="M0 222L1 223L0 222z"/>
<path style="fill:#848481; stroke:none;" d="M207 222L208 223L207 222z"/>
<path style="fill:#000000; stroke:none;" d="M0 223L0 230L8 230C5.54329 227.351 2.96149 225.066 0 223z"/>
<path style="fill:#7e7e7c; stroke:none;" d="M1 223L2 224L1 223z"/>
<path style="fill:#e7fa81; stroke:none;" d="M112 223L112 226C112.696 224.446 112.696 224.554 112 223z"/>
<path style="fill:#fbfec2; stroke:none;" d="M117 223C117.684 224.58 117.805 224.777 119 226C118.316 224.42 118.195 224.223 117 223z"/>
<path style="fill:#f2f4db; stroke:none;" d="M138 223L138 226L141 226L141 223L138 223z"/>
<path style="fill:#7b7c7a; stroke:none;" d="M206 223L207 224L206 223z"/>
<path style="fill:#000000; stroke:none;" d="M207 223C204.748 225.206 202.576 227.193 200 229C202.613 230.098 205.164 229.993 208 230C207.981 227.457 207.985 225.332 207 223z"/>
<path style="fill:#757571; stroke:none;" d="M2 224L3 225L2 224z"/>
<path style="fill:#737471; stroke:none;" d="M205 224L206 225L205 224z"/>
<path style="fill:#6a6a65; stroke:none;" d="M3 225L4 226L3 225z"/>
<path style="fill:#6a6a68; stroke:none;" d="M204 225L205 226L204 225z"/>
<path style="fill:#5d5d59; stroke:none;" d="M4 226L5 227L4 226z"/>
<path style="fill:#f9ffd2; stroke:none;" d="M112 226C112.936 227.949 113.392 228.55 115 230C114.064 228.051 113.608 227.45 112 226z"/>
<path style="fill:#5d5d5c; stroke:none;" d="M203 226L204 227L203 226z"/>
<path style="fill:#4d4d47; stroke:none;" d="M5 227L6 228L5 227z"/>
<path style="fill:#afb09c; stroke:none;" d="M6 227L7 228L6 227z"/>
<path style="fill:#f5f8dd; stroke:none;" d="M179 230C180.923 229.098 180.999 228.924 182 227C179.636 227.482 179.482 227.636 179 230z"/>
<path style="fill:#b6b6b5; stroke:none;" d="M201 227L202 228L201 227z"/>
<path style="fill:#4d4d4c; stroke:none;" d="M202 227L203 228L202 227z"/>
<path style="fill:#373732; stroke:none;" d="M6 228L7 229L6 228z"/>
<path style="fill:#9d9e8f; stroke:none;" d="M7 228L8 229L7 228z"/>
<path style="fill:#f7fae4; stroke:none;" d="M84 228C85.5398 229.803 86.5975 229.832 89 230C87.2495 228.745 86.1426 228.386 84 228z"/>
<path style="fill:#e8efb9; stroke:none;" d="M142 228L142 230L145 230L145 228L142 228z"/>
<path style="fill:#edf4c2; stroke:none;" d="M181 228L181 230L183 230L183 228L181 228z"/>
<path style="fill:#a4a4a4; stroke:none;" d="M200 228L201 229L200 228z"/>
<path style="fill:#393939; stroke:none;" d="M201 228L202 229L201 228z"/>
<path style="fill:#90918c; stroke:none;" d="M8 229L9 230L8 229z"/>
<path style="fill:#919191; stroke:none;" d="M199 229L200 230L199 229z"/>
</svg>
