<svg xmlns="http://www.w3.org/2000/svg" xmlns:xlink="http://www.w3.org/1999/xlink" width="520" zoomAndPan="magnify" viewBox="0 0 390 389.999986" height="520" preserveAspectRatio="xMidYMid meet" version="1.0"><defs><g/></defs><g fill="#ffffff" fill-opacity="1"><g transform="translate(39.033329, 355.18051)"><g><path d="M 300.765625 -10.640625 C 300.765625 -10.378906 300.765625 -9.984375 300.765625 -9.453125 C 300.765625 -8.929688 300.765625 -8.410156 300.765625 -7.890625 C 300.242188 -2.367188 297.222656 0.390625 291.703125 0.390625 L 248.734375 0.390625 C 245.316406 0.390625 242.554688 -0.394531 240.453125 -1.96875 C 239.660156 -2.5 238.9375 -3.285156 238.28125 -4.328125 C 237.625 -5.378906 236.90625 -6.429688 236.125 -7.484375 L 234.546875 -10.640625 L 214.046875 -10.640625 L 199.0625 -37.046875 L 225.46875 -37.046875 L 220.75 -45.71875 L 199.859375 -45.71875 L 176.984375 -85.9375 L 191.96875 -85.9375 L 176.984375 -111.953125 L 152.15625 -111.953125 L 149.796875 -115.5 C 145.585938 -123.382812 141.25 -128.507812 136.78125 -130.875 C 132.570312 -133.5 125.476562 -134.8125 115.5 -134.8125 L 75.6875 -134.8125 L 75.6875 -111.953125 L 100.90625 -111.953125 L 100.90625 -85.9375 L 81.203125 -85.9375 L 81.203125 -45.71875 L 144.265625 -45.71875 L 144.265625 -37.046875 L 80.421875 -37.046875 L 80.421875 -13.40625 C 80.421875 -13.144531 80.351562 -12.75 80.21875 -12.21875 C 80.082031 -11.695312 80.015625 -11.171875 80.015625 -10.640625 L 100.515625 -10.640625 C 99.992188 -5.910156 98.414062 -2.890625 95.78125 -1.578125 C 93.15625 -0.265625 91.054688 0.390625 89.484375 0.390625 L 53.609375 0.390625 C 52.035156 0.390625 49.929688 -0.265625 47.296875 -1.578125 C 44.671875 -2.890625 43.097656 -5.910156 42.578125 -10.640625 L 22.078125 -10.640625 C 22.078125 -11.171875 22.007812 -11.695312 21.875 -12.21875 C 21.75 -12.75 21.6875 -13.144531 21.6875 -13.40625 L 21.6875 -37.046875 L 35.484375 -37.046875 L 35.484375 -45.71875 L 22.46875 -45.71875 L 22.46875 -85.9375 L 42.578125 -85.9375 L 42.578125 -111.953125 L 17.34375 -111.953125 L 17.34375 -154.921875 L 44.9375 -154.921875 L 44.9375 -163.59375 L 21.28125 -163.59375 L 21.28125 -230.59375 L 29.171875 -230.59375 L 29.171875 -256.609375 L 44.9375 -256.609375 L 44.9375 -274.75 L 23.65625 -274.75 L 23.65625 -301.15625 L 42.171875 -301.15625 L 42.171875 -311.015625 C 42.171875 -317.316406 43.679688 -321.191406 46.703125 -322.640625 C 49.734375 -324.085938 52.035156 -324.8125 53.609375 -324.8125 L 89.875 -324.8125 C 91.445312 -324.8125 93.675781 -324.085938 96.5625 -322.640625 C 99.457031 -321.191406 100.90625 -317.316406 100.90625 -311.015625 L 100.90625 -301.15625 L 81.984375 -301.15625 L 81.984375 -274.75 L 103.28125 -274.75 L 103.28125 -256.609375 L 108.796875 -256.609375 L 108.796875 -230.59375 L 79.625 -230.59375 L 79.625 -193.15625 L 115.890625 -193.15625 C 118.515625 -193.15625 120.878906 -193.21875 122.984375 -193.34375 C 125.085938 -193.476562 127.0625 -193.675781 128.90625 -193.9375 C 132.320312 -194.46875 134.945312 -195.257812 136.78125 -196.3125 C 139.40625 -197.625 141.507812 -199.460938 143.09375 -201.828125 C 144.40625 -203.140625 145.585938 -204.648438 146.640625 -206.359375 C 147.691406 -208.066406 148.742188 -209.835938 149.796875 -211.671875 L 160.4375 -230.59375 L 171.46875 -230.59375 L 186.453125 -256.609375 L 199.0625 -256.609375 L 209.3125 -274.75 L 188.03125 -274.75 L 202.609375 -301.15625 L 221.53125 -301.15625 L 230.59375 -316.921875 C 231.644531 -319.023438 233.09375 -320.867188 234.9375 -322.453125 C 236.507812 -324.023438 239.398438 -324.8125 243.609375 -324.8125 L 282.625 -324.8125 C 287.363281 -324.8125 290.390625 -322.578125 291.703125 -318.109375 C 292.222656 -314.691406 291.828125 -311.539062 290.515625 -308.65625 L 286.1875 -301.15625 L 267.265625 -301.15625 L 252.28125 -274.75 L 273.5625 -274.75 L 263.3125 -256.609375 L 251.09375 -256.609375 L 236.125 -230.59375 L 225.078125 -230.59375 L 204.578125 -194.328125 C 200.640625 -187.765625 197.09375 -181.851562 193.9375 -176.59375 C 191.050781 -172.382812 188.425781 -168.96875 186.0625 -166.34375 C 186.582031 -166.082031 187.101562 -165.6875 187.625 -165.15625 C 188.15625 -164.632812 188.679688 -164.113281 189.203125 -163.59375 L 249.515625 -163.59375 C 250.828125 -162.269531 252.140625 -160.882812 253.453125 -159.4375 C 254.773438 -158 255.960938 -156.492188 257.015625 -154.921875 L 192.75 -154.921875 C 194.851562 -152.023438 197.019531 -148.929688 199.25 -145.640625 C 201.488281 -142.359375 203.660156 -138.878906 205.765625 -135.203125 L 219.171875 -111.953125 L 244.390625 -111.953125 L 259.375 -85.9375 L 244.390625 -85.9375 L 267.65625 -45.71875 L 288.546875 -45.71875 L 293.671875 -37.046875 L 267.265625 -37.046875 L 278.6875 -16.953125 C 279.21875 -16.160156 279.546875 -15.238281 279.671875 -14.1875 C 279.804688 -13.132812 280.003906 -11.953125 280.265625 -10.640625 Z M 165.5625 -284.203125 L 165.5625 -289.328125 L 108 -289.328125 L 108 -284.203125 Z M 149.390625 -101.703125 L 149.390625 -106.828125 L 111.15625 -106.828125 L 111.15625 -101.703125 Z M 191.1875 -14.1875 L 191.1875 -18.125 L 136 -18.125 L 136 -14.1875 Z M 191.1875 -14.1875 "/></g></g></g></svg>