<?xml version="1.0" standalone="yes"?>
<svg xmlns="http://www.w3.org/2000/svg" width="208" height="230" viewBox="0 0 208 230">
  <!-- White circular background -->
  <circle cx="104" cy="115" r="90" fill="white"/>
  
  <!-- Original logo paths -->
  <g transform="scale(0.85) translate(20, 30)">
    <path style="fill:#000000; stroke:none;" d="M0 0L0 5C2.13567 3.4511 3.45109 2.13567 5 0L0 0z"/>
    <path style="fill:#4d4d4d; stroke:none;" d="M5 0L6 1L5 0z"/>
    <path style="fill:#b6b6b6; stroke:none;" d="M6 0L7 1L6 0z"/>
    <path style="fill:#e6e6e6; stroke:none;" d="M0 8C3.47303 5.70166 6.4667 3.31076 9 0C4.62028 1.49007 1.97004 3.81372 0 8z"/>
    <path style="fill:#ffffff; stroke:none;" d="M0 54C9.7849 54 19.5979 54.0948 29 52L29 48L35 49C33.3448 51.9083 32.361 52.8642 29 53L29 69L32 69L32 75C25.4968 76.5282 17.2549 75.7981 12 80C12.4821 76.2138 13.8857 72.8694 14 69C9.39443 73.2104 9.36512 78.1244 9 84C7.00558 82.8552 4.48823 81.1055 4 84C1.96532 82.7741 1.67355 82.2974 1 80C-0.661102 83.9586 0 88.7397 0 93L0 118C5.82079 116.355 3.49675 112.397 6.02778 108.148C8.4163 104.138 13.2305 105.105 17 106C16.5176 103.636 16.364 103.482 14 103L14 99C15.5944 100.297 16.0183 100.535 18 101L17 97C22.1792 94.2847 22.5718 82.0802 30.8835 83.3133C32.6416 83.5741 34.5053 85.1299 36 86C36.8087 80.9767 39.6029 80.2884 43 84C43.683 82.494 43.8259 81.6852 44 80L48 80C48 71.6945 46.8824 65.1196 57 65L57 57L46 57L46 41L56 41C56.0355 37.0762 56.1007 33.1836 59.2284 30.3179C62.4209 27.3927 67.0017 28.0003 71 28C80.0544 27.9994 88.3861 27.7859 89 39L99.8302 40.2855L109 39C108.316 36.791 107.92 36.2966 106 35L106 33C108.379 33.0273 108.683 33.06 110 35C110.683 33.4939 110.826 32.6852 111 31C114.7 30.4127 117.365 29.8359 121 31C123.555 25.6817 127.848 22.5966 131.716 18.2847C136.848 12.564 137.299 7.10283 146 7C146.211 9.73856 146.303 10.422 149 11C147.685 13.3492 146.801 14.3644 145 12C136.789 16.0892 130.725 27.5603 124.001 33.9568C120.516 37.272 117.399 38.9819 117 44L127 44C126.115 47.8504 125.619 51.4258 129 54C127.966 58.0362 127.828 62.8211 128 67C126.373 64.5278 126.5 61.9268 126 59L122 60C122.084 62.5489 121.668 64.5304 121 67L125 67L125 69C121.127 68.1932 119.642 66.9406 119 63L110 62C109.737 58.5902 109.321 57.0989 106 56C105.826 58.6125 105.582 59.9433 104 62L105 66C101.96 66.7243 99.1217 66.9738 96 67L96 69L101 69C99.1441 70.0481 98.0559 70.5125 96 71L96 73L104 75C102.693 79.2057 100.231 80.1129 96 80L96 84C89.5737 83.9773 84.4263 81.0227 78 81L78 100C86.4794 100 99.0739 102.336 106.961 98.9907C113.598 96.1756 115.442 88.2256 119.785 83.1481C122.117 80.4222 125.74 80.2492 128.096 77.6829C131.088 74.4242 132.22 69.5106 135.61 66.6026C137.414 65.054 139.825 65.1723 141.791 63.9769C144.333 62.4313 145.648 59.5181 147 57C141.726 57.0041 137.147 58.3728 132 59C135.565 52.6581 141.527 47.1361 145.348 40.5756C146.493 38.6102 146.223 36.2567 147.293 34.3573C148.39 32.412 150.15 32.8385 152 33L152 35L149 36C149.598 37.1954 149.466 36.9774 151 38L149 39L149 41C154.368 40.8216 157.203 38.1983 158.968 33C160.438 28.6671 158.866 25.5725 164 24L164 28L182 28.0008C185.301 28.0182 189.002 27.8547 191.486 30.4336C196.361 35.4947 194.036 47.5623 194 54L198 54L197 59C200.808 58.8906 204.034 57.3215 207 60C209.599 53.8061 208 44.6859 208 38L208 17C207.998 13.1317 208.316 9.32661 205.682 6.17053C198.288 -2.6902 185.289 0 175 0L97 0C95.8251 5.62517 93.2972 10.1735 89 14C89.5466 8.93677 92.1524 4.68892 94 0L28 0C18.6137 0 7.71854 -1.91377 1.6034 7.08951C-0.97704 10.8887 0 16.639 0 21L0 54z"/>
    <path style="fill:#f2fab9; stroke:none;" d="M94 0C93.0143 1.47852 93 1.20314 93 3C94.2892 1.55739 94.4009 1.76625 94 0z"/>
    <path style="fill:#dfee85; stroke:none;" d="M95 0C94.0748 2.3398 93.7722 3.5303 94 6C95.4019 4.0585 96.2212 2.27013 97 0L95 0z"/>
    <path style="fill:#e6e6e6; stroke:none;" d="M199 0C201.533 3.31078 204.527 5.70166 208 8C206.03 3.81371 203.38 1.49007 199 0z"/>
  </g>
</svg>